<svg id="Header" xmlns="http://www.w3.org/2000/svg" viewBox="0 0 411.27 59.03"><defs><style>.cls-1{fill:#fff;}</style></defs><title>iabg_logo_white</title><path class="cls-1" d="M41,52.74a23.85,23.85,0,0,1-4.15.19l-0.36,0c0.89,0.5,1.84.91,2.74,1.4a6.9,6.9,0,0,1,2.45,2.11,29.49,29.49,0,0,0,5.37-3.16A13.42,13.42,0,0,0,41,52.74ZM35.5,54.5c0.24,1.38,1.94,2.07,2.63,3.26a29.31,29.31,0,0,0,2.85-1c-0.45-.25-0.93-0.46-1.4-0.68C38.32,55.47,36.93,54.42,35.5,54.5Zm-3.26-.58c-1.26-.27-1.71.63-2,1.77s-0.4,2.23-.58,3.35a29.54,29.54,0,0,0,7.43-1C35.81,56.26,34.21,54.34,32.24,53.91ZM29.52,0A29.51,29.51,0,0,0,11.07,52.55,5.56,5.56,0,0,1,11.64,52a2.86,2.86,0,0,1,1-.28,21.07,21.07,0,0,1,2.64,0h0.17a26.41,26.41,0,0,1,3.2.33c1.76,0.21,3.72.4,5.34-.51A6.16,6.16,0,0,0,25.67,50l0.55-.6a8.79,8.79,0,0,0,.93-1.62c1.11-2.55,1.29-5.5,1.48-8.25,0.15-2.1.27-4.22,0.26-6.33A8.76,8.76,0,0,0,25.43,32c-0.27-.06-0.54-0.09-0.81-0.14v0.24l-0.09.09v0.36l-0.09.09v0.09l-0.09.09L24.27,33v0.09l-0.09.18v0.18l-0.09.09L24,33.7l-0.09.09V34l-0.17.09v0.18l-0.18.18-0.09.18-0.09.09-0.17.18L23.13,35,23,35.15l-0.18.09-0.09.09-0.17.09-0.09.18-0.17.09H22.17l-0.09.09-0.18.09L21.74,36H21.65l-0.09.09-0.09.09H21.21l-0.09.09H21l-0.26.09H20.43V36.15l-0.09-.09V35.25l0.09-.18V34.52l0.09-.09V34.16L20.69,34V33.79l0.09-.18V33.52l0.09-.09L21,33.25,21,33.16l0.09-.09,0.09-.27,0.26-.18,0.09-.09,0.09-.09,0.09-.09,0.09-.09L22,32.16l0.09-.09L22.26,32l0.09-.09h0.18l0.17-.09,0.17-.09H23l0.12-.06a29.92,29.92,0,0,0-4.3,0,9.86,9.86,0,0,1-3.16-.34v0.16l-0.09.09-0.09.18-0.09.18L15.36,32l-0.09.09-0.09.09v0.18l-0.09.09-0.18.09-0.09.18-0.09.09L14.66,33l-0.17.09-0.09.18-0.09.09-0.18.09L14,33.61l-0.09.09-0.18.18L13.53,34l-0.18.09-0.17.09L13,34.34l-0.17.09-0.18.09-0.17.09-0.18.09H12.13L12,34.79l-0.17.09H11.43L11.34,35H10.56l-0.09.09L10.38,35H10l-0.17-.09H9.68L9.6,34.79H9.42V34.7l0.17-.09V34.43l0.09-.09V34.16l0.18-.09V33.88L10,33.79l0.09-.18,0.18-.18,0.09-.27L10.56,33l0.17-.18L11,32.61l0.17-.18,0.18-.18,0.09-.09,0.17-.09L11.69,32l0.17-.09L12,31.8,12,31.71l0.17-.09,0.18-.09h0.09l0.09-.09,0.17-.09h0.17L13,31.25h0.17l0.17-.09h0.18l0.17-.09H15c-0.81-.26-1.61-0.58-2.45-0.91a0.65,0.65,0,0,1,0-.17,2.34,2.34,0,0,1-1.25-1l-0.06.06H10.91l-0.17.09H9.6l-0.17.09-0.18-.09H8.72l-0.26-.09H8.29L8.11,29H7.76L7.67,28.9H7.41L7.24,28.8l-0.09-.09-0.26-.18H6.71l-0.09-.09-0.18-.09-0.18-.09-0.09-.09L6.1,28,6,27.9l-0.26-.18-0.18-.18-0.09-.18-0.17-.18L5.23,27,5.14,26.9V26.72l-0.09-.09,0.09-.09H5.32l0.17-.09H5.58l0.18-.09H6l0.18-.09H6.63l0.09-.09H8.29l0.18,0.09H8.55l0.17,0.09H8.81L9,26.45H9.07l0.18,0.09H9.42L9.6,26.63l0.09,0.09,0.18,0.09H9.95l0.17,0.09L10.3,27l0.09,0.09,0.17,0.09,0.17,0.09,0.09,0.18L11,27.62l0.09,0.09,0.18,0.09L11.34,28l0.09,0.18,0.17,0.09,0.09,0.18,0.17,0.18,0,0.07a0.62,0.62,0,0,0,.15.11c0.3,0.13.6,0.51,0.91,0.68a8.41,8.41,0,0,0,2.55.79l0.56,0.07h0L16,30.26l-0.09-.09-0.18-.09L15.62,30l-0.17-.09-0.18-.18-0.09-.18L15,29.44l-0.17-.27L14.66,29l-0.17-.18-0.09-.18-0.09-.09-0.09-.18-0.09-.09-0.09-.09L14,28V27.9l-0.09-.18-0.09-.09V27.44l-0.09-.18-0.09-.09L13.53,27V26.72l-0.09-.18V26.17l-0.09-.09V24.81l0.09-.18V24.45l0.09-.18V24.09l0.09-.18V23.63l0.17-.09h0.09l0.17,0.09,0.09,0.18,0.18,0.09,0.18,0.18,0.26,0.18,0.09,0.09,0.09,0.09L15,24.63l0.09,0.09,0.09,0.09L15.36,25l0.09,0.18,0.09,0.09,0.17,0.18,0.09,0.18,0.09,0.18L16,25.9l0.09,0.18,0.09,0.27,0.09,0.18,0.09,0.18L16.41,27v0.18l0.09,0.18,0.09,0.18v0.54l0.09,0.18V28.9l-0.09.18v0.45l-0.09.18v0.18L16.41,30l-0.09.18v0.09l-0.09.09v0a55.34,55.34,0,0,0,6.1-.21,18.69,18.69,0,0,1,5.49.67,1.81,1.81,0,0,1,.85.48,1.16,1.16,0,0,1,.19.31c0-.23,0-0.46,0-0.69-0.07-1.31-.25-2.59-0.41-3.88a13.69,13.69,0,0,0-2-2.71,10.64,10.64,0,0,0-3.18-2.19c-1.15-.49-2.41-0.61-3.57-1.09a18.31,18.31,0,0,1-3.83-2,12.08,12.08,0,0,1-1.32-1l-0.17.09L14.14,18H13.7l-0.17-.09H13.27l-0.18-.09-0.18-.09H12.65l-0.09-.09-0.17-.09-0.18-.09L12,17.37l-0.18-.09-0.17-.09-0.18-.09L11.43,17l-0.18-.18-0.18-.09L11,16.56l-0.09-.09-0.09-.09-0.18-.18-0.09-.09L10.47,16l-0.17-.18-0.09-.27-0.09-.18L9.95,15.2V15l-0.09-.18-0.09-.09V14.56H9.86l0.09-.09h0.26l0.09-.09h0.35l0.18-.09h1L12,14.38h0.44l0.09,0.09h0.09l0.09,0.09,0.17,0.09H13l0.09,0.09,0.18,0.09h0.09l0.09,0.09L13.53,15l0.17,0.09,0.09,0.09,0.09,0.09,0.17,0.18,0.09,0.09,0.09,0.09,0.09,0.18,0.09,0.09,0.09,0.18,0.09,0.09,0.09,0.18,0.09,0.18,0.09,0.18,0.09,0.18L15,17.19l0.09,0.09v0.06a13.53,13.53,0,0,0,2.69,1.84c1.67,1,3.5,1.22,5.26,1.87-0.21-.26-0.42-0.52-0.62-0.78-0.75-1-1.47-2-2.29-3-0.37-.41-0.77-0.8-1.16-1.19l0,0L18.77,16l-0.17-.18-0.17-.18-0.18-.18-0.17-.18-0.17-.18-0.26-.18-0.18-.18-0.09-.18-0.09-.18-0.09-.09-0.09-.09L17,14l-0.09-.18-0.09-.09-0.09-.09-0.09-.18-0.09-.09V13.2L16.5,13l-0.09-.18V12.66l-0.09-.18V12.38l-0.09-.18V11.66l-0.09-.27V10.66l0.09-.27V10l0.09-.18V9.57l0.09-.18,0.09-.18h0.09L16.67,9.3l0.17,0.09,0.09,0.09,0.26,0.09,0.09,0.09,0.09,0.09,0.17,0.09,0.09,0.09L17.72,10l0.18,0.09L18,10.3l0.17,0.09,0.09,0.18,0.18,0.09,0.09,0.18L18.68,11l0.09,0.18,0.18,0.18L19,11.57l0.18,0.18,0.09,0.18,0.09,0.27,0.09,0.09,0.09,0.09,0.09,0.09v0.18l0.09,0.18L19.81,13,19.9,13.2,20,13.47v0.36L20.08,14v1.45L20,15.56V16l-0.09.09,0,0.1c0.53,0.47,1,1,1.5,1.53a22,22,0,0,1,2.2,2.81c0.2,0.3.4,0.62,0.58,0.94a12.22,12.22,0,0,1,3,1.67,3.43,3.43,0,0,1,1,1.46c0-.32-0.05-0.63-0.06-1-0.08-3.27-.83-6.47-1-9.73H26.89L26.71,14H25.23l-0.09-.09H24.71l-0.09-.09H24.44l-0.18-.09H24l-0.09-.09H23.75l-0.26-.09-0.09-.09-0.17-.09H23.13L23,13.29l-0.09-.09-0.17-.09L22.61,13l-0.18-.09-0.09-.09-0.17-.09-0.09-.09-0.18-.18-0.09-.09-0.09-.18-0.09-.09-0.18-.18-0.09-.18-0.09-.09-0.09-.18L21,11.29V11.11l-0.18-.18-0.09-.18V10.66h0.44l0.09-.09h1.48L23,10.66h0.52l0.26,0.09,0.17,0.09,0.18,0.09h0.17L24.44,11l0.26,0.09,0.17,0.09,0.18,0.09,0.17,0.09,0.17,0.09,0.18,0.09,0.17,0.09,0.09,0.09L26,11.93,26.19,12l0.09,0.09,0.09,0.09,0.09,0.18,0.09,0.09,0.18,0.09v0.18l0.09,0.09,0.09,0.09L27,13.11l0.09,0.18,0,0c0-.29,0-0.58,0-0.87V12.11L27,11.93V11.48l-0.09-.27V9.84L27,9.75V9.3l0.09-.09V8.94l0.09-.18V8.66l0.09-.18V8.3l0.09-.18L27.41,8V7.85l0.09-.09V7.58l0.17-.09V7.3l0.09-.09L27.85,7l0.09-.09,0.18-.18,0.09-.09,0.18-.18,0.09-.09,0.18-.09,0.09-.18L28.9,6l0.17-.18,0.18-.09,0.18-.09,0.17-.09,0.17-.09V5.58l0.09,0.09V6.12l0.09,0.09V8.3l-0.09.18V8.94l-0.09.18V9.3l-0.09.18V9.57H29.6V9.75l-0.09.18-0.09.18-0.09.18-0.09.18-0.09.18-0.09.09L29,10.93l-0.09.18-0.18.09-0.09.09-0.09.18-0.09.09-0.26.18L28,11.93l-0.17.18-0.17.09-0.17.09-0.09.09h-0.2A2.14,2.14,0,0,1,28,13.78a41,41,0,0,1,1.19,7.31c0.36-.26,1.25-0.38,1.64-0.61,0.58-.34,1.1-0.78,1.68-1.12L33.05,19l0,0-0.09-.09-0.17-.18-0.18-.09-0.09-.18-0.17-.18-0.18-.18L32,17.92l-0.17-.18-0.18-.18-0.09-.09-0.09-.18-0.09-.09-0.09-.09-0.09-.18V16.83l-0.09-.18V16.56L31,16.38l-0.09-.09-0.09-.18V16l-0.09-.18-0.09-.18V15.38l-0.09-.18V15l-0.09-.18V13.65l0.09-.18V13l0.09-.18,0.09-.18,0.09-.18h0.09v0.09l0.17,0.09,0.09,0.09,0.17,0.09L31.52,13l0.26,0.18,0.09,0.09L32,13.38,32,13.47l0.18,0.18,0.09,0.09,0.09,0.09L32.56,14l0.09,0.09,0.09,0.18,0.17,0.18L33,14.65l0.09,0.18L33.18,15l0.09,0.18,0.09,0.18,0.17,0.18v0.27L33.61,16l0.09,0.18v0.18l0.09,0.18v0.18l0.09,0.18v0.36L34,17.37v0.36l-0.09.09v0.45l-0.09.09v0.21a15.42,15.42,0,0,0,2-1.42,7.93,7.93,0,0,1,1.66-1.54V15.47l-0.09-.18V13.93l0.09-.18V13.56l0.09-.18V12.93l0.09-.09,0.09-.18V12.38l0.09-.18,0.09-.09V11.93L38,11.75l0.09-.09,0.09-.09,0.09-.27,0.09-.09L38.42,11l0.09-.09,0.18-.18V10.66l0.18-.09,0.09-.18,0.17-.09,0.09-.09L39.38,10l0.18-.09,0.17-.09,0.17-.09,0.18-.18h0.17V9.66l0.09,0.18v0.27l0.09,0.18v0.27l0.09,0.18v0.64l-0.09.18v0.73l-0.09.18v0.45l-0.09.18v0.27l-0.09.09v0.18l-0.09.09L40,13.93l-0.09.18-0.09.18-0.09.18-0.09.18-0.09.18L39.46,15l-0.17.18-0.09.09-0.09.09L39,15.47l-0.09.09-0.26.27v0h0.09l-0.12.07,0,0.1-0.26.09,0,0-0.16.1-0.06.06-0.17.09h0c-0.91.62-1.8,1.39-2.66,2.05-1.23.94-2.52,1.73-3.76,2.65a22.73,22.73,0,0,0-2.11,1.39c0,0.27.08,0.55,0.12,0.82a83.7,83.7,0,0,1,1,8.65A2.11,2.11,0,0,1,31,31.51a13.71,13.71,0,0,1,1.65-.77,6.9,6.9,0,0,1,2.09-.37v0l-0.09-.18L34.57,30l-0.09-.27V29.53l-0.09-.18-0.09-.27V29l-0.09-.09V28.08l-0.09-.18V26.72l0.09-.18V26.26l0.09-.18V26l0.09-.18,0.09-.09V25.54l0.09-.18,0.09-.18V25.08l0.09-.18,0.09-.18,0.09-.09L35,24.45l0.09-.18,0.17-.09L35.36,24l0.17-.18,0.09-.09,0.18-.18L36,23.45l0.17-.09v0.09l0.09,0.18,0.09,0.18L36.41,24v0.09l0.09,0.09v0.18l0.09,0.18v0.27L36.67,25v0.27l0.09,0.18v0.91l0.09,0.27-0.09.18v0.73l-0.09.18V27.9l-0.09.27v0.18l-0.09.18-0.09.18V28.9L36.32,29l-0.17.18v0.18l-0.09.09L36,29.62l-0.09.09-0.09.09-0.09.09L35.62,30l-0.18.18-0.09.09-0.18.09v0l0.38,0c0.64-.54,1.56-0.88,2.25-1.42A27.79,27.79,0,0,0,40,27c0.18-.18.56-0.74,0.86-1l0-.09-0.09-.09-0.09-.18V25.45l-0.09-.18L40.43,25l-0.09-.18V24.36l-0.09-.18V23.45l0.09-.09V22.91l0.09-.18,0.09-.09V22.45l0.09-.09,0.09-.09V22.09l0.09-.18,0.09-.09,0.09-.09,0.18-.18,0.09-.09,0.09-.18,0.18-.09L41.56,21l0.18-.09,0.09-.09L42,20.64l0.26-.09,0.09-.18,0.17-.09,0.26-.09v0.09L43,20.46,43,20.55l0.09,0.27L43.22,21v0.09l0.09,0.18v0.09l0.09,0.09v0.36h0.09V22l0.09,0.18v0.73l0.09,0.18-0.09.18v0.55L43.48,24l-0.09.18-0.09.18v0.18l-0.09.18-0.09.09L43,25,43,25.18l-0.18.09-0.09.09-0.09.18-0.09.09-0.17.18L42.17,26,42,26.08l-0.17.18-0.17.09-0.18.09H41.4a9.48,9.48,0,0,1-1.52,1.74c-0.71.64-1.34,1.34-2.1,1.9a7.78,7.78,0,0,1-.78.44c0.73,0.11,1.47.24,2.23,0.34a20.9,20.9,0,0,0,3.43.3c0.55,0,1.14-.06,1.69-0.12A2,2,0,0,0,44.7,31V30.89l-0.09-.09V30.62l-0.09-.18V30.08L44.44,30V28.9l0.09-.18V28l0.09-.18V27.72l0.09-.18V27.35l0.09-.09V27.08L44.88,27V26.81L45,26.63l0.09-.09,0.09-.18,0.09-.18,0.09-.09,0.09-.18,0.09-.09,0.09-.09,0.09-.18,0.17-.09,0.09-.18,0.18-.09,0.09-.09,0.09-.18,0.17-.09,0.18-.18,0.18-.09L47,24.45l0.17-.09v0.09l0.09,0.09V25l0.09,0.09v0.36l0.09,0.18v1.45l-0.09.18v0.45l-0.09.18v0.36l-0.09.09v0.27l-0.09.18L47,29l-0.09.18-0.09.18-0.09.18-0.09.18-0.09.18L46.45,30l-0.09.09-0.09.18-0.09.09-0.09.09-0.18.18-0.26.18h0l0.24,0.06L46,30.8h0.26l0.26-.09H47l0.09-.09h1.57l0.17,0.09H48.9l0.17,0.09h0.26l0.17,0.09h0.18L49.77,31l0.17,0.09H50l0.17,0.09,0.09,0.09,0.17,0.09,0.09,0.09,0.18,0.09,0.17,0.09L51,31.71l0.17,0.18L51.34,32l0.09,0.09,0.17,0.09,0.09,0.18,0.18,0.18L52,32.71,52,32.8l0.09,0.27,0.17,0.18H52.13L52,33.34H51.78l-0.09.09H51.43l-0.09.09H51.25l-0.17.09h-2l-0.17-.09H48.63l-0.18-.09H48.28l-0.17-.09H48l-0.09-.09H47.85l-0.26-.09H47.41L47.24,33l-0.18-.09-0.17-.09H46.8l-0.18-.09-0.09-.18-0.09-.09H46.28l-0.18-.27L46,32l-0.18-.18-0.09-.18,0-.09a3.39,3.39,0,0,1-.89.44,6.38,6.38,0,0,1-1.82.12c-1.64,0-3.27-.31-4.91-0.45l0.06,0.07H38.5l0.18,0.09,0.09,0.09h0.17L39,32l0.17,0.09,0.09,0.09,0.17,0.09,0.18,0.09,0.17,0.09,0.09,0.09,0.18,0.18,0.17,0.09L40.34,33l0.18,0.09,0.09,0.18,0.09,0.09,0.09,0.18,0.09,0.18,0.09,0.09L41,34l0.09,0.09,0.09,0.18v0.18l0.09,0.09V35l0.09,0.18v1l-0.09.18v0.18H40.86l-0.17-.09H40.16L40,36.33H39.81l-0.26-.09-0.18-.09-0.18-.09L39,36l-0.18-.09H38.77l-0.09-.09-0.09-.09-0.17-.09-0.18-.18-0.17-.18-0.26-.18-0.09-.18-0.09-.09-0.09-.18V34.52l-0.09-.09-0.09-.18-0.09-.18V34l-0.09-.18-0.09-.09V33.34L37,33.16V31.62h0.75c-0.51,0-1-.07-1.53-0.07a6.17,6.17,0,0,0-3.22.87,7.05,7.05,0,0,0-1.38,1.06,14.12,14.12,0,0,0-1,1.41c0.06,1.26.1,2.51,0.14,3.77,0.12,3.81,1,8.79,3.23,12l0.16,0.05a14.49,14.49,0,0,0,4.78.86c0.8,0,1.61.05,2.4,0a12.64,12.64,0,0,1,6.5,1.11A29.51,29.51,0,0,0,29.52,0ZM18.6,56.94A29.41,29.41,0,0,0,29.07,59a17.42,17.42,0,0,0-.92-3.23C26.49,51.86,21.55,54.82,18.6,56.94Zm3.1-3.54A21.82,21.82,0,0,1,19.12,53a14.64,14.64,0,0,0-4.38-.42,13.12,13.12,0,0,1-3.45.1,29.49,29.49,0,0,0,6.79,4A15.84,15.84,0,0,1,21.7,53.41Z"/><path class="cls-1" d="M74.49,29.33h-2.9V6.69h2.9V29.33Z"/><path class="cls-1" d="M81.4,29.33H78.71V5.46H81.4V29.33Z"/><path class="cls-1" d="M87.71,29.33H85V5.46h2.69V29.33Z"/><path class="cls-1" d="M94,8.7H91.33V5.46H94V8.7Zm0,20.63H91.33V12H94V29.33Z"/><path class="cls-1" d="M104.6,11.57a5.39,5.39,0,0,1,1.77.27,3.14,3.14,0,0,1,1.35.9,4.33,4.33,0,0,1,.86,1.63,8.45,8.45,0,0,1,.31,2.45v12.5h-2.71V17a5.26,5.26,0,0,0-.18-1.49,2.34,2.34,0,0,0-.5-0.93,1.72,1.72,0,0,0-.77-0.48,3.43,3.43,0,0,0-1-.14,2.48,2.48,0,0,0-1.22.32,3.16,3.16,0,0,0-1,.93,5,5,0,0,0-.71,1.5,7,7,0,0,0-.27,2V29.33H97.8V12h2l0.37,2h0.19a4.43,4.43,0,0,1,1.8-1.85A5.14,5.14,0,0,1,104.6,11.57Z"/><path class="cls-1" d="M118.45,11.57a5.33,5.33,0,0,1,4.62,2.21q1.58,2.21,1.58,6.86t-1.58,6.87a6,6,0,0,1-9.25,0q-1.58-2.2-1.58-6.87t1.58-6.86A5.33,5.33,0,0,1,118.45,11.57Zm0,2.4a2.71,2.71,0,0,0-2.54,1.51,9.69,9.69,0,0,0-.83,4.53v1.27a9.64,9.64,0,0,0,.83,4.51,2.88,2.88,0,0,0,5.07,0,9.57,9.57,0,0,0,.84-4.51V20a9.61,9.61,0,0,0-.84-4.53A2.72,2.72,0,0,0,118.45,14Z"/><path class="cls-1" d="M130.56,8.7h-2.69V5.46h2.69V8.7Zm0,20.63h-2.69V12h2.69V29.33Z"/><path class="cls-1" d="M139.38,11.57a5.61,5.61,0,0,1,2.13.38,4.56,4.56,0,0,1,1.56,1,4.3,4.3,0,0,1,1,1.51,5.18,5.18,0,0,1,.32,1.83c0,0.12,0,.24,0,0.38s0,0.22,0,.25h-2.8V16.66a4.42,4.42,0,0,0-.11-1,2.38,2.38,0,0,0-.39-0.88,2.06,2.06,0,0,0-.74-0.62,2.53,2.53,0,0,0-1.15-.23,2.49,2.49,0,0,0-1.18.24,2.15,2.15,0,0,0-.72.6,2,2,0,0,0-.36.77,3.46,3.46,0,0,0-.1.77,1.92,1.92,0,0,0,.34,1.17,2.9,2.9,0,0,0,.89.78,7,7,0,0,0,1.27.56l1.46,0.52a14,14,0,0,1,1.46.64,4.78,4.78,0,0,1,1.27.93,4.32,4.32,0,0,1,.89,1.41,5.47,5.47,0,0,1,.34,2,6.25,6.25,0,0,1-.42,2.41,4.45,4.45,0,0,1-1.16,1.66,4.66,4.66,0,0,1-1.76,1,7.61,7.61,0,0,1-2.21.31,6.89,6.89,0,0,1-2.56-.43,4.73,4.73,0,0,1-1.73-1.14,4.53,4.53,0,0,1-1-1.63,5.73,5.73,0,0,1-.31-1.88c0-.23,0-0.4,0-0.51s0-.19,0-0.22h2.85v0.34a4,4,0,0,0,.22,1.4,2.59,2.59,0,0,0,.6,1,2.38,2.38,0,0,0,.9.56,3.4,3.4,0,0,0,1.11.18,3,3,0,0,0,1-.16,2.33,2.33,0,0,0,1.4-1.31,2.77,2.77,0,0,0,.21-1.11,2.48,2.48,0,0,0-.34-1.35,3,3,0,0,0-.89-0.89,6.48,6.48,0,0,0-1.27-.63l-1.46-.54a14.07,14.07,0,0,1-1.46-.63,5,5,0,0,1-1.26-.89,4,4,0,0,1-.89-1.34,5,5,0,0,1-.34-2,5.41,5.41,0,0,1,.38-2.08,4.22,4.22,0,0,1,1.09-1.56,5,5,0,0,1,1.7-1A6.73,6.73,0,0,1,139.38,11.57Z"/><path class="cls-1" d="M167.59,24.28h-9l-1.55,5h-2.9l7.19-22.64h3.74l7.19,22.64h-3.13Zm-8.17-2.64h7.35l-3.06-10.07a5.53,5.53,0,0,1-.19-0.7L163.35,10q-0.08-.47-0.18-1H163q-0.1.52-.18,1t-0.18.82q-0.1.42-.18,0.69Z"/><path class="cls-1" d="M179.72,11.57a5.61,5.61,0,0,1,2.13.38,4.56,4.56,0,0,1,1.56,1,4.3,4.3,0,0,1,1,1.51,5.18,5.18,0,0,1,.32,1.83c0,0.12,0,.24,0,0.38s0,0.22,0,.25h-2.8V16.66a4.42,4.42,0,0,0-.11-1,2.38,2.38,0,0,0-.39-0.88,2.06,2.06,0,0,0-.74-0.62,2.53,2.53,0,0,0-1.15-.23,2.49,2.49,0,0,0-1.18.24,2.15,2.15,0,0,0-.72.6,2,2,0,0,0-.36.77,3.46,3.46,0,0,0-.1.77,1.92,1.92,0,0,0,.34,1.17,2.9,2.9,0,0,0,.89.78,7,7,0,0,0,1.27.56l1.46,0.52a14,14,0,0,1,1.46.64,4.78,4.78,0,0,1,1.27.93,4.32,4.32,0,0,1,.89,1.41,5.47,5.47,0,0,1,.34,2,6.25,6.25,0,0,1-.42,2.41,4.45,4.45,0,0,1-1.16,1.66,4.66,4.66,0,0,1-1.76,1,7.61,7.61,0,0,1-2.21.31,6.89,6.89,0,0,1-2.56-.43,4.73,4.73,0,0,1-1.73-1.14,4.53,4.53,0,0,1-1-1.63,5.73,5.73,0,0,1-.31-1.88c0-.23,0-0.4,0-0.51s0-.19,0-0.22h2.85v0.34a4,4,0,0,0,.22,1.4,2.59,2.59,0,0,0,.6,1,2.38,2.38,0,0,0,.9.56,3.4,3.4,0,0,0,1.11.18,3,3,0,0,0,1-.16,2.33,2.33,0,0,0,1.4-1.31,2.77,2.77,0,0,0,.21-1.11,2.48,2.48,0,0,0-.34-1.35,3,3,0,0,0-.89-0.89,6.48,6.48,0,0,0-1.27-.63l-1.46-.54a14.07,14.07,0,0,1-1.46-.63,5,5,0,0,1-1.26-.89,4,4,0,0,1-.89-1.34,5,5,0,0,1-.34-2,5.41,5.41,0,0,1,.38-2.08,4.22,4.22,0,0,1,1.09-1.56,5,5,0,0,1,1.7-1A6.73,6.73,0,0,1,179.72,11.57Z"/><path class="cls-1" d="M193.5,11.57a5.61,5.61,0,0,1,2.13.38,4.56,4.56,0,0,1,1.56,1,4.3,4.3,0,0,1,1,1.51,5.18,5.18,0,0,1,.32,1.83c0,0.12,0,.24,0,0.38s0,0.22,0,.25h-2.8V16.66a4.42,4.42,0,0,0-.11-1,2.38,2.38,0,0,0-.39-0.88,2.06,2.06,0,0,0-.74-0.62,2.53,2.53,0,0,0-1.15-.23,2.49,2.49,0,0,0-1.18.24,2.15,2.15,0,0,0-.72.6,2,2,0,0,0-.36.77,3.46,3.46,0,0,0-.1.77,1.92,1.92,0,0,0,.34,1.17,2.9,2.9,0,0,0,.89.78,7,7,0,0,0,1.27.56l1.46,0.52a14,14,0,0,1,1.46.64,4.78,4.78,0,0,1,1.27.93,4.32,4.32,0,0,1,.89,1.41,5.47,5.47,0,0,1,.34,2,6.25,6.25,0,0,1-.42,2.41,4.45,4.45,0,0,1-1.16,1.66,4.66,4.66,0,0,1-1.76,1,7.61,7.61,0,0,1-2.21.31,6.89,6.89,0,0,1-2.56-.43A4.73,4.73,0,0,1,189,28.14a4.53,4.53,0,0,1-1-1.63,5.73,5.73,0,0,1-.31-1.88c0-.23,0-0.4,0-0.51s0-.19,0-0.22h2.85v0.34a4,4,0,0,0,.22,1.4,2.59,2.59,0,0,0,.6,1,2.38,2.38,0,0,0,.9.56,3.4,3.4,0,0,0,1.11.18,3,3,0,0,0,1-.16,2.33,2.33,0,0,0,1.4-1.31,2.77,2.77,0,0,0,.21-1.11,2.48,2.48,0,0,0-.34-1.35,3,3,0,0,0-.89-0.89,6.48,6.48,0,0,0-1.27-.63l-1.46-.54a14.07,14.07,0,0,1-1.46-.63,5,5,0,0,1-1.26-.89,4,4,0,0,1-.89-1.34,5,5,0,0,1-.34-2,5.41,5.41,0,0,1,.38-2.08,4.22,4.22,0,0,1,1.09-1.56,5,5,0,0,1,1.7-1A6.73,6.73,0,0,1,193.5,11.57Z"/><path class="cls-1" d="M208.06,11.57a6.35,6.35,0,0,1,2.5.46,4.21,4.21,0,0,1,1.79,1.44A7,7,0,0,1,213.42,16a16.56,16.56,0,0,1,.36,3.72v1.72h-9.41a8.4,8.4,0,0,0,.94,4.45,3.16,3.16,0,0,0,2.84,1.42,2.64,2.64,0,0,0,1.18-.27,2.66,2.66,0,0,0,.93-0.77,3.72,3.72,0,0,0,.61-1.23,5.64,5.64,0,0,0,.22-1.63h2.67a7.89,7.89,0,0,1-.41,2.63,5.63,5.63,0,0,1-1.16,2,5,5,0,0,1-1.8,1.25,6,6,0,0,1-2.32.44,7.35,7.35,0,0,1-2.84-.51,4.86,4.86,0,0,1-2.05-1.61A7.66,7.66,0,0,1,202,24.78a17.66,17.66,0,0,1-.42-4.13q0-4.66,1.64-6.86A5.69,5.69,0,0,1,208.06,11.57Zm0,2.4a3.48,3.48,0,0,0-1.56.32,2.82,2.82,0,0,0-1.09,1,5,5,0,0,0-.68,1.58,12.94,12.94,0,0,0-.34,2.2h6.54a7.76,7.76,0,0,0-.73-3.78A2.34,2.34,0,0,0,208.06,14Z"/><path class="cls-1" d="M220,12h2.34v2.42H220V25.72a1.67,1.67,0,0,0,.39,1.18,1.52,1.52,0,0,0,1.16.41h0.79V29.2a3.34,3.34,0,0,1-.89.32,4.67,4.67,0,0,1-1.06.13,2.91,2.91,0,0,1-1.48-.35,2.71,2.71,0,0,1-1-.91,3.92,3.92,0,0,1-.51-1.28,7,7,0,0,1-.15-1.46V14.39h-1.5V12h1.5l0.6-4.82H220V12Z"/><path class="cls-1" d="M233.2,6.69h8.59a6.68,6.68,0,0,1,2.33.4A5.38,5.38,0,0,1,246,8.2,5.19,5.19,0,0,1,247.18,10a5.67,5.67,0,0,1,.44,2.28,6,6,0,0,1-.27,1.82,5.55,5.55,0,0,1-.73,1.51,5.12,5.12,0,0,1-1.1,1.15,5,5,0,0,1-1.36.74v0.13a5.44,5.44,0,0,1,1.57.78A5.65,5.65,0,0,1,247,19.62a5.86,5.86,0,0,1,.85,1.68,6.5,6.5,0,0,1,.31,2,6.08,6.08,0,0,1-.51,2.55,5.6,5.6,0,0,1-1.38,1.89,6,6,0,0,1-2,1.18,7.39,7.39,0,0,1-2.46.4H233.2V6.69Zm2.9,2.64v7.09h4.82a3.81,3.81,0,0,0,1.51-.29,3.66,3.66,0,0,0,1.16-.77,3.32,3.32,0,0,0,.74-1.13,3.65,3.65,0,0,0,.26-1.37,3.44,3.44,0,0,0-1-2.65,3.56,3.56,0,0,0-2.51-.88h-5Zm0,9.73v7.62h5.29a4.46,4.46,0,0,0,1.49-.24,3.19,3.19,0,0,0,1.18-.72,3.33,3.33,0,0,0,.77-1.18,4.31,4.31,0,0,0,.28-1.62,4,4,0,0,0-.27-1.47,3.68,3.68,0,0,0-2-2.08,4.06,4.06,0,0,0-1.63-.31H236.1Z"/><path class="cls-1" d="M262.49,29.33h-2l-0.35-2h-0.21a4.34,4.34,0,0,1-1.81,1.85,5.21,5.21,0,0,1-2.38.55,5.4,5.4,0,0,1-1.76-.27,3.16,3.16,0,0,1-1.35-.89,4.25,4.25,0,0,1-.86-1.62,8.46,8.46,0,0,1-.31-2.45V12h2.71V24.28a5.27,5.27,0,0,0,.18,1.49,2.27,2.27,0,0,0,.5.93,1.76,1.76,0,0,0,.77.48,3.34,3.34,0,0,0,1,.14,2.53,2.53,0,0,0,1.23-.32,3.13,3.13,0,0,0,1-.93,5,5,0,0,0,.71-1.49,6.9,6.9,0,0,0,.27-2V12h2.71V29.33Z"/><path class="cls-1" d="M269,8.7h-2.69V5.46H269V8.7Zm0,20.63h-2.69V12H269V29.33Z"/><path class="cls-1" d="M275.27,29.33h-2.69V5.46h2.69V29.33Z"/><path class="cls-1" d="M290.29,29.33h-2l-0.35-2h-0.18a4.33,4.33,0,0,1-1.6,1.8,4.14,4.14,0,0,1-2.19.6,4.76,4.76,0,0,1-2.24-.52,4.48,4.48,0,0,1-1.7-1.64,8.75,8.75,0,0,1-1.07-2.83,19.77,19.77,0,0,1-.37-4.12,17.52,17.52,0,0,1,.41-4.06,9.31,9.31,0,0,1,1.11-2.81,4.74,4.74,0,0,1,1.64-1.64,4.05,4.05,0,0,1,2-.53,4.62,4.62,0,0,1,2.25.54,3.26,3.26,0,0,1,1.44,1.51h0.16V5.46h2.71V29.33ZM284.47,14a2.64,2.64,0,0,0-1.35.34,2.6,2.6,0,0,0-1,1.06,6.2,6.2,0,0,0-.58,1.88,17,17,0,0,0-.19,2.76v1.27a16.82,16.82,0,0,0,.19,2.76,6.19,6.19,0,0,0,.58,1.87,2.6,2.6,0,0,0,1,1.06,2.64,2.64,0,0,0,1.35.34,2.49,2.49,0,0,0,2.34-1.51,10.36,10.36,0,0,0,.77-4.51V20.16Q287.58,14,284.47,14Z"/><path class="cls-1" d="M296.75,8.7h-2.69V5.46h2.69V8.7Zm0,20.63h-2.69V12h2.69V29.33Z"/><path class="cls-1" d="M307.33,11.57a5.4,5.4,0,0,1,1.77.27,3.14,3.14,0,0,1,1.34.9,4.33,4.33,0,0,1,.86,1.63,8.45,8.45,0,0,1,.31,2.45v12.5h-2.71V17a5.26,5.26,0,0,0-.18-1.49,2.34,2.34,0,0,0-.5-0.93,1.72,1.72,0,0,0-.77-0.48,3.43,3.43,0,0,0-1-.14,2.48,2.48,0,0,0-1.22.32,3.16,3.16,0,0,0-1,.93,5,5,0,0,0-.71,1.5,7,7,0,0,0-.27,2V29.33h-2.71V12h2l0.37,2h0.19a4.44,4.44,0,0,1,1.8-1.85A5.14,5.14,0,0,1,307.33,11.57Z"/><path class="cls-1" d="M328.09,9.15a5.34,5.34,0,0,1-.19,1.46,4.12,4.12,0,0,1-.57,1.23,3.67,3.67,0,0,1-.92.93,3.74,3.74,0,0,1-1.22.56,5.53,5.53,0,0,1,1.14,1.77,6.15,6.15,0,0,1,.41,2.32,7,7,0,0,1-.39,2.42,5.12,5.12,0,0,1-1.12,1.83,5,5,0,0,1-1.75,1.16,6.28,6.28,0,0,1-2.28.43h-1.82a1.56,1.56,0,0,0-.62.12,1.66,1.66,0,0,0-.5.33,1.49,1.49,0,0,0-.34.49,1.51,1.51,0,0,0-.12.6,1.43,1.43,0,0,0,.13.6,1.69,1.69,0,0,0,.35.5,1.58,1.58,0,0,0,.5.34,1.51,1.51,0,0,0,.6.12h5a4.28,4.28,0,0,1,1.69.32,3.79,3.79,0,0,1,2.1,2.17,4.31,4.31,0,0,1,.28,1.56,5.57,5.57,0,0,1-.33,1.93,4.34,4.34,0,0,1-1,1.56,4.63,4.63,0,0,1-1.6,1,5.73,5.73,0,0,1-2.17.39h-4.92a5,5,0,0,1-1.87-.32,3.76,3.76,0,0,1-1.34-.89,3.7,3.7,0,0,1-.81-1.31,4.75,4.75,0,0,1-.11-2.82,4.25,4.25,0,0,1,.45-1.07,3.62,3.62,0,0,1,.71-0.85,3,3,0,0,1,.93-0.56,2.88,2.88,0,0,1-1-1.12A3.14,3.14,0,0,1,315,24.9a2.68,2.68,0,0,1,.67-1.83,4.21,4.21,0,0,1,1.78-1.17A5.39,5.39,0,0,1,315.92,20a6,6,0,0,1-.53-2.59,7.23,7.23,0,0,1,.39-2.45,5.06,5.06,0,0,1,1.12-1.84A4.87,4.87,0,0,1,318.68,12a6.62,6.62,0,0,1,2.38-.4,5.15,5.15,0,0,1,1.31.17,5.58,5.58,0,0,1,1.19.46,4.44,4.44,0,0,0,1-.67,3.71,3.71,0,0,0,.63-0.76,3.45,3.45,0,0,0,.36-0.8,6.14,6.14,0,0,0,.18-0.82h2.38Zm-9.25,19.79a2.37,2.37,0,0,0-.89.15,1.7,1.7,0,0,0-.63.43,1.75,1.75,0,0,0-.37.64,2.52,2.52,0,0,0-.12.79,2.39,2.39,0,0,0,.13.79,1.92,1.92,0,0,0,.38.65,1.73,1.73,0,0,0,.63.44,2.23,2.23,0,0,0,.88.16h4.79a2,2,0,0,0,.81-0.16,2.09,2.09,0,0,0,.65-0.44,2,2,0,0,0,.44-0.65,2.06,2.06,0,0,0,.15-0.79,2.55,2.55,0,0,0-.12-0.79,1.7,1.7,0,0,0-.38-0.64,1.77,1.77,0,0,0-.64-0.43,2.42,2.42,0,0,0-.91-0.15h-4.79ZM321,13.81a2.59,2.59,0,0,0-2.19,1,4.24,4.24,0,0,0-.74,2.64,4.14,4.14,0,0,0,.74,2.66,3,3,0,0,0,4.4,0,4.12,4.12,0,0,0,.76-2.62,4.15,4.15,0,0,0-.76-2.68A2.69,2.69,0,0,0,321,13.81Z"/><path class="cls-1" d="M353.3,26.81A6.21,6.21,0,0,1,350.78,29a7.81,7.81,0,0,1-3.33.69,9.42,9.42,0,0,1-3.8-.73,7.07,7.07,0,0,1-2.79-2.19,10.23,10.23,0,0,1-1.72-3.66,20,20,0,0,1-.59-5.14,18.8,18.8,0,0,1,.63-5.15A10.39,10.39,0,0,1,341,9.2,7.29,7.29,0,0,1,343.82,7a9.55,9.55,0,0,1,3.81-.73,10.31,10.31,0,0,1,3.26.5,7.16,7.16,0,0,1,2.61,1.51,6.87,6.87,0,0,1,1.72,2.54,9.49,9.49,0,0,1,.62,3.58h-3a6.92,6.92,0,0,0-.39-2.43,4.57,4.57,0,0,0-1.07-1.7,4.25,4.25,0,0,0-1.65-1A6.69,6.69,0,0,0,347.63,9a6,6,0,0,0-2.52.51,4.92,4.92,0,0,0-1.9,1.53,7.34,7.34,0,0,0-1.2,2.57,13.84,13.84,0,0,0-.42,3.61v1.66q0,4.14,1.52,6.18a5.09,5.09,0,0,0,4.35,2,5,5,0,0,0,4.12-1.6,7.59,7.59,0,0,0,1.3-4.85V20.09H347V17.55h8.85V29.33h-1.92Z"/><path class="cls-1" d="M365.69,11.57a2.39,2.39,0,0,1,.5,0l0.4,0.1L367,11.84v2.8h-0.9a3.57,3.57,0,0,0-1.22.21,2.59,2.59,0,0,0-1,.68,3.44,3.44,0,0,0-.71,1.26,6.09,6.09,0,0,0-.27,1.94V29.33h-2.71V12h2l0.37,2.27h0.19a6.66,6.66,0,0,1,.4-1,3.67,3.67,0,0,1,.6-0.85,2.85,2.85,0,0,1,.83-0.61A2.48,2.48,0,0,1,365.69,11.57Z"/><path class="cls-1" d="M375,11.57a5.33,5.33,0,0,1,4.62,2.21q1.58,2.21,1.58,6.86t-1.58,6.87a6,6,0,0,1-9.25,0q-1.58-2.2-1.58-6.87t1.58-6.86A5.33,5.33,0,0,1,375,11.57Zm0,2.4a2.71,2.71,0,0,0-2.54,1.51A9.69,9.69,0,0,0,371.6,20v1.27a9.64,9.64,0,0,0,.83,4.51,2.88,2.88,0,0,0,5.07,0,9.57,9.57,0,0,0,.84-4.51V20a9.61,9.61,0,0,0-.84-4.53A2.72,2.72,0,0,0,375,14Z"/><path class="cls-1" d="M395.59,29.33h-2l-0.35-2H393a4.34,4.34,0,0,1-1.81,1.85,5.21,5.21,0,0,1-2.38.55,5.4,5.4,0,0,1-1.76-.27,3.16,3.16,0,0,1-1.35-.89,4.25,4.25,0,0,1-.86-1.62,8.46,8.46,0,0,1-.31-2.45V12h2.71V24.28a5.27,5.27,0,0,0,.18,1.49,2.27,2.27,0,0,0,.5.93,1.76,1.76,0,0,0,.77.48,3.34,3.34,0,0,0,1,.14,2.53,2.53,0,0,0,1.23-.32,3.13,3.13,0,0,0,1-.93,5,5,0,0,0,.71-1.49,6.9,6.9,0,0,0,.27-2V12h2.71V29.33Z"/><path class="cls-1" d="M405.91,11.57a4.66,4.66,0,0,1,2.22.53,4.49,4.49,0,0,1,1.69,1.64,9,9,0,0,1,1.07,2.83,19.25,19.25,0,0,1,.38,4.1,18,18,0,0,1-.4,4.08,9.17,9.17,0,0,1-1.1,2.81,4.64,4.64,0,0,1-1.64,1.63,4.1,4.1,0,0,1-2,.52,5,5,0,0,1-2.26-.5,3.11,3.11,0,0,1-1.44-1.42h-0.16V35h-2.71V12h2l0.37,2h0.16a4.45,4.45,0,0,1,1.6-1.79A4.1,4.1,0,0,1,405.91,11.57ZM405.32,14A2.48,2.48,0,0,0,403,15.49a10.41,10.41,0,0,0-.76,4.53v1.27A10.36,10.36,0,0,0,403,25.8a2.48,2.48,0,0,0,2.33,1.51,2.68,2.68,0,0,0,1.36-.34,2.59,2.59,0,0,0,1-1.06,6.19,6.19,0,0,0,.58-1.87,16.82,16.82,0,0,0,.19-2.76V20a17,17,0,0,0-.19-2.76,6.2,6.2,0,0,0-.58-1.88,2.59,2.59,0,0,0-1-1.06A2.68,2.68,0,0,0,405.32,14Z"/><path class="cls-1" d="M76.3,50.81H72l-1.13,3.6H69.34l4-11.81H75l4,11.81h-1.6ZM75.92,49.6l-0.56-1.8q-0.32-1-.61-2t-0.58-2H74.11q-0.27,1-.56,2t-0.61,2l-0.56,1.8h3.55Z"/><path class="cls-1" d="M85.66,55.15v3H84.18V45.66h1.22l0.13,1h0.05a6.69,6.69,0,0,1,1.31-.86,3.25,3.25,0,0,1,1.48-.36,3.38,3.38,0,0,1,1.49.31,2.9,2.9,0,0,1,1.08.9,4.22,4.22,0,0,1,.66,1.4,7,7,0,0,1,.23,1.85,6,6,0,0,1-.31,2,4.61,4.61,0,0,1-.83,1.49,3.5,3.5,0,0,1-1.21.93,3.41,3.41,0,0,1-1.44.31,3,3,0,0,1-1.22-.27,6.13,6.13,0,0,1-1.21-.74Zm0-2.68a3.92,3.92,0,0,0,1.15.71,2.89,2.89,0,0,0,1,.21,2.1,2.1,0,0,0,1-.24,2.38,2.38,0,0,0,.79-0.68,3.35,3.35,0,0,0,.52-1.09,5.21,5.21,0,0,0,.19-1.46,6.38,6.38,0,0,0-.13-1.31,3,3,0,0,0-.41-1,1.94,1.94,0,0,0-.72-0.66A2.22,2.22,0,0,0,88,46.69a2.35,2.35,0,0,0-1.12.31,6.58,6.58,0,0,0-1.21.88v4.59Z"/><path class="cls-1" d="M94.17,45.66H95.4l0.13,1.58h0.05a4,4,0,0,1,1.09-1.31,2.25,2.25,0,0,1,1.39-.49,2.33,2.33,0,0,1,.94.18l-0.29,1.3-0.4-.11a2.36,2.36,0,0,0-.45,0,2,2,0,0,0-1.16.45,3.58,3.58,0,0,0-1.05,1.57v5.62H94.17V45.66Z"/><path class="cls-1" d="M99.59,50.06a5.35,5.35,0,0,1,.33-2,4.44,4.44,0,0,1,.89-1.45,3.75,3.75,0,0,1,1.29-.9,4,4,0,0,1,3.08,0,3.75,3.75,0,0,1,1.29.9,4.45,4.45,0,0,1,.89,1.45,5.36,5.36,0,0,1,.33,2,5.31,5.31,0,0,1-.33,1.94,4.35,4.35,0,0,1-.89,1.44,3.79,3.79,0,0,1-1.29.89,4,4,0,0,1-3.08,0,3.79,3.79,0,0,1-1.29-.89A4.33,4.33,0,0,1,99.93,52,5.3,5.3,0,0,1,99.59,50.06Zm1.53,0a4.84,4.84,0,0,0,.18,1.37,3.24,3.24,0,0,0,.51,1.05,2.36,2.36,0,0,0,.8.68,2.29,2.29,0,0,0,2.05,0,2.36,2.36,0,0,0,.8-0.68,3.25,3.25,0,0,0,.51-1.05,4.84,4.84,0,0,0,.18-1.37,4.93,4.93,0,0,0-.18-1.38,3.35,3.35,0,0,0-.51-1.07,2.33,2.33,0,0,0-.8-0.69,2.29,2.29,0,0,0-2.05,0,2.33,2.33,0,0,0-.8.69,3.34,3.34,0,0,0-.51,1.07A4.93,4.93,0,0,0,101.12,50.06Z"/><path class="cls-1" d="M110,45.66h1.48V55.4a3.71,3.71,0,0,1-.54,2.12,2.08,2.08,0,0,1-1.85.79,3.43,3.43,0,0,1-.74-0.07,4,4,0,0,1-.56-0.16L108.11,57l0.38,0.1a2.22,2.22,0,0,0,.45,0,0.86,0.86,0,0,0,.86-0.45A3,3,0,0,0,110,55.4V45.66Zm0.76-1.8a1,1,0,0,1-.73-0.27,0.95,0.95,0,0,1,0-1.38,1.07,1.07,0,0,1,.73-0.26,1,1,0,0,1,.71.26,0.95,0.95,0,0,1,0,1.38A1,1,0,0,1,110.77,43.86Z"/><path class="cls-1" d="M113.79,50.06a5.3,5.3,0,0,1,.33-1.94,4.52,4.52,0,0,1,.88-1.45,3.82,3.82,0,0,1,1.25-.91,3.53,3.53,0,0,1,1.46-.31,3.67,3.67,0,0,1,1.48.29,2.9,2.9,0,0,1,1.1.83,3.8,3.8,0,0,1,.67,1.3,5.7,5.7,0,0,1,.23,1.69,5,5,0,0,1-.05.81h-5.9a3.48,3.48,0,0,0,.87,2.25,2.68,2.68,0,0,0,2,.83,3.44,3.44,0,0,0,1.16-.19,5.12,5.12,0,0,0,1-.49l0.52,1a7.43,7.43,0,0,1-1.28.63,4.44,4.44,0,0,1-1.6.27,4.28,4.28,0,0,1-1.65-.31,3.89,3.89,0,0,1-1.33-.9,4.17,4.17,0,0,1-.89-1.43A5.36,5.36,0,0,1,113.79,50.06Zm6.12-.67a3.24,3.24,0,0,0-.57-2.06,1.92,1.92,0,0,0-1.59-.71,2.16,2.16,0,0,0-.89.19,2.47,2.47,0,0,0-.77.54,2.88,2.88,0,0,0-.57.86,4,4,0,0,0-.3,1.18h4.68Z"/><path class="cls-1" d="M122.72,50.06a5.23,5.23,0,0,1,.34-2,4.4,4.4,0,0,1,.92-1.45,3.84,3.84,0,0,1,1.34-.9,4.3,4.3,0,0,1,1.61-.31,3.25,3.25,0,0,1,1.48.31,4.74,4.74,0,0,1,1.07.73l-0.74,1a4.14,4.14,0,0,0-.82-0.56,2,2,0,0,0-.94-0.22,2.46,2.46,0,0,0-2,.94,3.43,3.43,0,0,0-.57,1.07,4.33,4.33,0,0,0-.21,1.38,4.42,4.42,0,0,0,.2,1.37,3.31,3.31,0,0,0,.55,1.05,2.42,2.42,0,0,0,.85.68,2.62,2.62,0,0,0,2.24,0,4.11,4.11,0,0,0,.91-0.62l0.67,1a4.81,4.81,0,0,1-1.32.83,3.9,3.9,0,0,1-1.52.31,4.28,4.28,0,0,1-1.62-.31,3.64,3.64,0,0,1-1.31-.89A4.18,4.18,0,0,1,123,52,5.57,5.57,0,0,1,122.72,50.06Z"/><path class="cls-1" d="M131.83,46.87h-1.3V45.75l1.37-.09,0.18-2.45h1.24v2.45h2.36v1.21h-2.36v4.86a2.23,2.23,0,0,0,.3,1.25,1.17,1.17,0,0,0,1.05.44,2,2,0,0,0,.5-0.07,3.75,3.75,0,0,0,.49-0.16L136,54.3a7.8,7.8,0,0,1-.78.23,3.7,3.7,0,0,1-.84.1,2.86,2.86,0,0,1-1.18-.22,2,2,0,0,1-.77-0.59A2.31,2.31,0,0,1,132,52.9a5.23,5.23,0,0,1-.13-1.19V46.87Z"/><path class="cls-1" d="M140.65,50.06a5.35,5.35,0,0,1,.33-2,4.44,4.44,0,0,1,.89-1.45,3.75,3.75,0,0,1,1.29-.9,4,4,0,0,1,3.08,0,3.75,3.75,0,0,1,1.29.9,4.45,4.45,0,0,1,.89,1.45,5.36,5.36,0,0,1,.33,2,5.31,5.31,0,0,1-.33,1.94,4.35,4.35,0,0,1-.89,1.44,3.79,3.79,0,0,1-1.29.89,4,4,0,0,1-3.08,0,3.79,3.79,0,0,1-1.29-.89A4.33,4.33,0,0,1,141,52,5.3,5.3,0,0,1,140.65,50.06Zm1.53,0a4.84,4.84,0,0,0,.18,1.37,3.24,3.24,0,0,0,.51,1.05,2.36,2.36,0,0,0,.8.68,2.29,2.29,0,0,0,2.05,0,2.36,2.36,0,0,0,.8-0.68,3.25,3.25,0,0,0,.51-1.05,4.84,4.84,0,0,0,.18-1.37,4.93,4.93,0,0,0-.18-1.38,3.35,3.35,0,0,0-.51-1.07,2.33,2.33,0,0,0-.8-0.69,2.29,2.29,0,0,0-2.05,0,2.33,2.33,0,0,0-.8.69,3.34,3.34,0,0,0-.51,1.07A4.93,4.93,0,0,0,142.18,50.06Z"/><path class="cls-1" d="M155,42.8a2.42,2.42,0,0,0-1-.22q-1.22,0-1.22,1.69v1.39h1.85v1.21h-1.85v7.54h-1.48V46.87h-1.19V45.75l1.19-.09V44.28a3.3,3.3,0,0,1,.62-2.12,2.33,2.33,0,0,1,1.94-.77,3.66,3.66,0,0,1,.78.08,4.14,4.14,0,0,1,.68.21Z"/><path class="cls-1" d="M160.09,42.6h1.49v5h5.49v-5h1.51V54.41h-1.51V48.85h-5.49v5.56h-1.49V42.6Z"/><path class="cls-1" d="M171,50.06a5.3,5.3,0,0,1,.33-1.94,4.52,4.52,0,0,1,.88-1.45,3.82,3.82,0,0,1,1.25-.91,3.53,3.53,0,0,1,1.46-.31,3.67,3.67,0,0,1,1.48.29,2.9,2.9,0,0,1,1.1.83,3.8,3.8,0,0,1,.67,1.3,5.7,5.7,0,0,1,.23,1.69,5,5,0,0,1-.05.81h-5.9a3.48,3.48,0,0,0,.87,2.25,2.68,2.68,0,0,0,2,.83,3.44,3.44,0,0,0,1.16-.19,5.12,5.12,0,0,0,1-.49l0.52,1a7.43,7.43,0,0,1-1.28.63,4.44,4.44,0,0,1-1.6.27,4.28,4.28,0,0,1-1.65-.31,3.89,3.89,0,0,1-1.33-.9,4.17,4.17,0,0,1-.89-1.43A5.36,5.36,0,0,1,171,50.06Zm6.12-.67a3.24,3.24,0,0,0-.57-2.06,1.92,1.92,0,0,0-1.59-.71,2.16,2.16,0,0,0-.89.19,2.47,2.47,0,0,0-.77.54,2.88,2.88,0,0,0-.57.86,4,4,0,0,0-.3,1.18h4.68Z"/><path class="cls-1" d="M179.93,52.14a2.43,2.43,0,0,1,1.29-2.21,10.65,10.65,0,0,1,4.09-1.07,4.06,4.06,0,0,0-.08-0.81,1.94,1.94,0,0,0-.29-0.7,1.57,1.57,0,0,0-.55-0.49,1.81,1.81,0,0,0-.88-0.19,3.53,3.53,0,0,0-1.43.29,7.1,7.1,0,0,0-1.18.65l-0.59-1a9.58,9.58,0,0,1,1.49-.77,5,5,0,0,1,1.94-.37,2.69,2.69,0,0,1,2.32,1,4.33,4.33,0,0,1,.72,2.62v5.36h-1.22l-0.13-1h0a7.28,7.28,0,0,1-1.36.89,3.37,3.37,0,0,1-1.54.37,2.67,2.67,0,0,1-1.85-.65A2.33,2.33,0,0,1,179.93,52.14Zm1.46-.11a1.25,1.25,0,0,0,.44,1.08,1.79,1.79,0,0,0,1.09.32,2.54,2.54,0,0,0,1.2-.3,5.8,5.8,0,0,0,1.2-.87V49.84a15.42,15.42,0,0,0-1.85.34,4.88,4.88,0,0,0-1.21.47,1.74,1.74,0,0,0-.66.62A1.53,1.53,0,0,0,181.38,52Z"/><path class="cls-1" d="M189.57,45.66h1.22l0.13,1.58H191a4,4,0,0,1,1.09-1.31,2.25,2.25,0,0,1,1.39-.49,2.33,2.33,0,0,1,.94.18l-0.29,1.3-0.4-.11a2.36,2.36,0,0,0-.45,0,2,2,0,0,0-1.16.45A3.58,3.58,0,0,0,191,48.79v5.62h-1.48V45.66Z"/><path class="cls-1" d="M196.07,46.87h-1.3V45.75l1.37-.09,0.18-2.45h1.24v2.45h2.36v1.21h-2.36v4.86a2.23,2.23,0,0,0,.3,1.25,1.17,1.17,0,0,0,1.05.44,2,2,0,0,0,.5-0.07,3.75,3.75,0,0,0,.49-0.16l0.29,1.12a7.8,7.8,0,0,1-.78.23,3.7,3.7,0,0,1-.84.1,2.86,2.86,0,0,1-1.18-.22,2,2,0,0,1-.77-0.59,2.31,2.31,0,0,1-.42-0.92,5.23,5.23,0,0,1-.13-1.19V46.87Z"/><path class="cls-1" d="M201.9,41.6h1.48V52.76a0.77,0.77,0,0,0,.13.5,0.37,0.37,0,0,0,.29.14h0.13l0.19,0,0.2,1.12a1.3,1.3,0,0,1-.34.11,2.91,2.91,0,0,1-.5,0,1.38,1.38,0,0,1-1.21-.5,2.53,2.53,0,0,1-.36-1.48V41.6Z"/><path class="cls-1" d="M206.06,52.14a2.43,2.43,0,0,1,1.29-2.21,10.65,10.65,0,0,1,4.09-1.07,4.06,4.06,0,0,0-.08-0.81,1.94,1.94,0,0,0-.29-0.7,1.57,1.57,0,0,0-.55-0.49,1.81,1.81,0,0,0-.88-0.19,3.53,3.53,0,0,0-1.43.29,7.1,7.1,0,0,0-1.18.65l-0.59-1a9.58,9.58,0,0,1,1.49-.77,5,5,0,0,1,1.94-.37,2.69,2.69,0,0,1,2.32,1,4.33,4.33,0,0,1,.72,2.62v5.36h-1.22l-0.13-1h0a7.28,7.28,0,0,1-1.36.89,3.37,3.37,0,0,1-1.54.37,2.67,2.67,0,0,1-1.85-.65A2.33,2.33,0,0,1,206.06,52.14Zm1.46-.11a1.25,1.25,0,0,0,.44,1.08,1.79,1.79,0,0,0,1.09.32,2.54,2.54,0,0,0,1.2-.3,5.8,5.8,0,0,0,1.2-.87V49.84a15.42,15.42,0,0,0-1.85.34,4.88,4.88,0,0,0-1.21.47,1.74,1.74,0,0,0-.66.62A1.53,1.53,0,0,0,207.52,52Z"/><path class="cls-1" d="M215.71,45.66h1.22l0.13,1.26h0.05a7.13,7.13,0,0,1,1.32-1.05,3,3,0,0,1,1.61-.42,2.35,2.35,0,0,1,2,.86,4.27,4.27,0,0,1,.64,2.56v5.54h-1.48V49.06a3.13,3.13,0,0,0-.4-1.79,1.45,1.45,0,0,0-1.26-.55,2.15,2.15,0,0,0-1.21.34,7.85,7.85,0,0,0-1.19,1v6.34h-1.48V45.66Z"/><path class="cls-1" d="M224.92,50.06a5.5,5.5,0,0,1,.31-1.92,4.54,4.54,0,0,1,.84-1.45,3.71,3.71,0,0,1,1.21-.92,3.32,3.32,0,0,1,1.44-.32,3,3,0,0,1,1.31.27,5.86,5.86,0,0,1,1.13.74L231.1,45V41.6h1.49V54.41h-1.22l-0.13-1h-0.05a5.55,5.55,0,0,1-1.2.87,3,3,0,0,1-1.45.37,3.24,3.24,0,0,1-2.64-1.19A5.18,5.18,0,0,1,224.92,50.06Zm1.53,0a4.19,4.19,0,0,0,.63,2.47,2.06,2.06,0,0,0,1.78.88,2.35,2.35,0,0,0,1.15-.3,4.13,4.13,0,0,0,1.08-.91V47.61A3.74,3.74,0,0,0,230,46.9a2.8,2.8,0,0,0-1.05-.21,2.06,2.06,0,0,0-1,.24,2.48,2.48,0,0,0-.8.68,3.41,3.41,0,0,0-.54,1.05A4.42,4.42,0,0,0,226.45,50Z"/><path class="cls-1" d="M244.72,50.81h-4.3l-1.13,3.6h-1.53l4-11.81h1.69l4,11.81h-1.6Zm-0.38-1.21-0.56-1.8q-0.32-1-.61-2t-0.58-2h-0.07q-0.27,1-.56,2t-0.61,2l-0.56,1.8h3.55Z"/><path class="cls-1" d="M249,41.6h1.48V52.76a0.77,0.77,0,0,0,.13.5,0.37,0.37,0,0,0,.29.14H251l0.19,0,0.2,1.12a1.29,1.29,0,0,1-.34.11,2.91,2.91,0,0,1-.5,0,1.38,1.38,0,0,1-1.21-.5,2.53,2.53,0,0,1-.36-1.48V41.6Z"/><path class="cls-1" d="M253.56,41.6H255V52.76a0.77,0.77,0,0,0,.13.5,0.37,0.37,0,0,0,.29.14h0.13l0.19,0,0.2,1.12a1.29,1.29,0,0,1-.34.11,2.91,2.91,0,0,1-.5,0,1.38,1.38,0,0,1-1.21-.5,2.53,2.53,0,0,1-.36-1.48V41.6Z"/><path class="cls-1" d="M258.91,43.86a1,1,0,0,1-.73-0.27,0.95,0.95,0,0,1,0-1.38,1.15,1.15,0,0,1,1.46,0,0.95,0.95,0,0,1,0,1.38A1,1,0,0,1,258.91,43.86Zm-0.76,1.8h1.48v8.75h-1.48V45.66Z"/><path class="cls-1" d="M262.15,52.14a2.43,2.43,0,0,1,1.29-2.21,10.64,10.64,0,0,1,4.09-1.07,4,4,0,0,0-.08-0.81,1.93,1.93,0,0,0-.29-0.7,1.57,1.57,0,0,0-.55-0.49,1.81,1.81,0,0,0-.88-0.19,3.52,3.52,0,0,0-1.43.29,7.13,7.13,0,0,0-1.18.65l-0.59-1a9.6,9.6,0,0,1,1.49-.77,5,5,0,0,1,1.94-.37,2.69,2.69,0,0,1,2.32,1A4.33,4.33,0,0,1,269,49v5.36h-1.22l-0.13-1h0a7.28,7.28,0,0,1-1.36.89,3.37,3.37,0,0,1-1.54.37,2.67,2.67,0,0,1-1.84-.65A2.33,2.33,0,0,1,262.15,52.14Zm1.46-.11a1.25,1.25,0,0,0,.44,1.08,1.79,1.79,0,0,0,1.09.32,2.54,2.54,0,0,0,1.2-.3,5.78,5.78,0,0,0,1.2-.87V49.84a15.41,15.41,0,0,0-1.85.34,4.87,4.87,0,0,0-1.21.47,1.73,1.73,0,0,0-.66.62A1.52,1.52,0,0,0,263.61,52Z"/><path class="cls-1" d="M271.79,45.66H273l0.13,1.26h0.05a7.14,7.14,0,0,1,1.32-1.05,3,3,0,0,1,1.61-.42,2.35,2.35,0,0,1,2,.86,4.27,4.27,0,0,1,.64,2.56v5.54h-1.48V49.06a3.13,3.13,0,0,0-.4-1.79,1.45,1.45,0,0,0-1.26-.55,2.16,2.16,0,0,0-1.21.34,7.85,7.85,0,0,0-1.19,1v6.34h-1.48V45.66Z"/><path class="cls-1" d="M281,50.06a5.24,5.24,0,0,1,.34-2,4.4,4.4,0,0,1,.92-1.45,3.84,3.84,0,0,1,1.34-.9,4.3,4.3,0,0,1,1.61-.31,3.25,3.25,0,0,1,1.49.31,4.72,4.72,0,0,1,1.07.73l-0.74,1a4.14,4.14,0,0,0-.82-0.56,2,2,0,0,0-.95-0.22,2.46,2.46,0,0,0-2,.94,3.43,3.43,0,0,0-.57,1.07,4.32,4.32,0,0,0-.21,1.38,4.44,4.44,0,0,0,.2,1.37,3.3,3.3,0,0,0,.55,1.05,2.42,2.42,0,0,0,.85.68,2.62,2.62,0,0,0,2.24,0,4.13,4.13,0,0,0,.91-0.62l0.67,1a4.82,4.82,0,0,1-1.32.83,3.9,3.9,0,0,1-1.52.31,4.29,4.29,0,0,1-1.62-.31,3.64,3.64,0,0,1-1.3-.89,4.19,4.19,0,0,1-.86-1.44A5.57,5.57,0,0,1,281,50.06Z"/><path class="cls-1" d="M288.82,50.06a5.29,5.29,0,0,1,.33-1.94,4.52,4.52,0,0,1,.88-1.45,3.83,3.83,0,0,1,1.25-.91,3.52,3.52,0,0,1,1.46-.31,3.67,3.67,0,0,1,1.49.29,2.9,2.9,0,0,1,1.1.83,3.81,3.81,0,0,1,.67,1.3,5.7,5.7,0,0,1,.23,1.69,5.17,5.17,0,0,1-.05.81h-5.9a3.47,3.47,0,0,0,.87,2.25,2.68,2.68,0,0,0,2,.83,3.44,3.44,0,0,0,1.16-.19,5.14,5.14,0,0,0,1-.49l0.52,1a7.45,7.45,0,0,1-1.28.63,4.43,4.43,0,0,1-1.6.27,4.28,4.28,0,0,1-1.65-.31,3.9,3.9,0,0,1-1.33-.9,4.16,4.16,0,0,1-.89-1.43A5.34,5.34,0,0,1,288.82,50.06Zm6.12-.67a3.24,3.24,0,0,0-.57-2.06,1.92,1.92,0,0,0-1.59-.71,2.15,2.15,0,0,0-.89.19,2.47,2.47,0,0,0-.77.54,2.88,2.88,0,0,0-.57.86,4,4,0,0,0-.3,1.18h4.68Z"/></svg>