<?xml version="1.0" encoding="UTF-8"?>
<svg width="206px" height="46px" viewBox="0 0 206 46" version="1.1" xmlns="http://www.w3.org/2000/svg" xmlns:xlink="http://www.w3.org/1999/xlink">
    <!-- Generator: Sketch 40.1 (33804) - http://www.bohemiancoding.com/sketch -->
    <title>MGC Logo</title>
    <desc>Created with Sketch.</desc>
    <defs></defs>
    <g id="Symbols" stroke="none" stroke-width="1" fill="none" fill-rule="evenodd">
        <g id="Header" transform="translate(-100.000000, -18.000000)">
            <g id="MGC-Logo" transform="translate(100.000000, 18.000000)">
                <path d="M0,45.1805398 L45.1804259,45.1805398 L45.1804259,0.000113938053 L0,0.000113938053 L0,45.1805398 Z M5.21323562,5.21277987 L39.96776,5.21277987 L39.96776,10.4260155 L10.4259015,10.4260155 L10.4259015,34.7546383 L17.3772622,34.7546383 L17.3772622,13.9016958 L39.96776,13.9016958 L39.96776,15.6398208 L19.1148175,15.6398208 L19.1148175,34.7546383 L26.0656084,34.7546383 L26.0656084,19.1149314 L39.96776,19.1149314 L39.96776,20.8524867 L27.8031637,20.8524867 L27.8031637,34.7546383 L34.7545243,34.7546383 L34.7545243,24.328167 L39.96776,24.328167 L39.96776,39.9673042 L5.21323562,39.9673042 L5.21323562,5.21277987 Z" id="Mark" fill="#FFFFFF"></path>
                <path d="M101.18598,36.2502461 C101.180393,35.7425693 101.077406,35.3150654 100.878587,34.9661643 C100.672929,34.6072594 100.402896,34.3070326 100.066209,34.0660537 C99.7295221,33.824505 99.3449812,33.6302406 98.913156,33.4838302 C98.4819004,33.3379895 98.0386814,33.2132273 97.585208,33.1106831 C97.1465465,33.0087085 96.7141515,32.9130006 96.290302,32.8252683 C95.8653131,32.737536 95.4887478,32.6389795 95.1594668,32.5290293 C94.8296162,32.4190791 94.5630011,32.2766565 94.3579126,32.1006222 C94.1528241,31.9251576 94.0508496,31.6984209 94.0508496,31.4204121 C94.0508496,31.1862694 94.108958,30.9999806 94.2263142,30.8604065 C94.3431007,30.7214021 94.4860929,30.6154397 94.6547212,30.5419497 C94.8227799,30.4690293 95.0090686,30.421745 95.2141571,30.3995271 C95.4192456,30.3773092 95.6095221,30.3664851 95.7849867,30.3664851 C96.3415741,30.3664851 96.8241018,30.4724475 97.2342788,30.6849419 C97.6438861,30.8974364 97.8706228,31.3030559 97.9144889,31.9035094 L100.878587,31.9035094 C100.819909,31.2005116 100.640457,30.6188579 100.34023,30.1579784 C100.040573,29.697099 99.6634381,29.32737 99.2099646,29.0493612 C98.7559215,28.7713523 98.2403518,28.5736698 97.6621162,28.4563136 C97.0833108,28.3395271 96.4879845,28.280849 95.872719,28.280849 C95.2580232,28.280849 94.6581394,28.3355393 94.0724978,28.4454895 C93.4868562,28.5554397 92.9598927,28.7457163 92.492177,29.0163191 C92.0233219,29.2874917 91.6467566,29.656651 91.3613418,30.1249364 C91.075927,30.5937915 90.9335044,31.1936753 90.9335044,31.9251576 C90.9335044,32.4230669 91.035479,32.844068 91.2405675,33.1875913 C91.445656,33.5316842 91.7162588,33.817099 92.0523761,34.0438357 C92.3890631,34.2705725 92.773604,34.4540127 93.2054292,34.5924475 C93.6372544,34.7320216 94.0799038,34.8527959 94.5339469,34.9547705 C95.6459823,35.1894829 96.5124812,35.4236256 97.1351527,35.6571986 C97.7572544,35.891911 98.0683053,36.2428402 98.0683053,36.7111256 C98.0683053,36.9891344 98.0027909,37.219859 97.8706228,37.4027295 C97.7390243,37.5861698 97.5743838,37.7320105 97.3767013,37.8419607 C97.1790188,37.9513413 96.9596881,38.0322373 96.7181394,38.0835094 C96.4765907,38.1347815 96.2464358,38.1604176 96.0265354,38.1604176 C95.7194723,38.1604176 95.4226637,38.1239574 95.1372489,38.0504674 C94.8518341,37.977547 94.5994613,37.8641787 94.3795608,37.7103623 C94.1607998,37.5565459 93.9807777,37.3588634 93.8423429,37.1173147 C93.7027688,36.875766 93.6338363,36.5869331 93.6338363,36.2502461 L90.6697378,36.2502461 C90.698792,37.0113523 90.8708385,37.6442782 91.1858772,38.1495935 C91.5003462,38.654339 91.9025476,39.0605282 92.3930509,39.3675913 C92.8829845,39.675224 93.4435597,39.8945548 94.0724978,40.0261532 C94.7020055,40.1577517 95.3463252,40.2238357 96.0048872,40.2238357 C96.6486372,40.2238357 97.2815631,40.1617395 97.9036648,40.0369773 C98.5257666,39.9133545 99.0777965,39.6968722 99.5608938,39.3898092 C100.044561,39.0821764 100.435368,38.6759873 100.736165,38.1712417 C100.984375,37.7526816 101.130178,37.2516484 101.172927,36.6678185 C101.240308,37.2459018 101.401765,37.7397255 101.657297,38.1495935 C101.971766,38.654339 102.373967,39.0605282 102.864471,39.3675913 C103.354404,39.675224 103.91498,39.8945548 104.543918,40.0261532 C105.173425,40.1577517 105.817745,40.2238357 106.476307,40.2238357 C107.120057,40.2238357 107.752983,40.1617395 108.375085,40.0369773 C108.997186,39.9133545 109.549216,39.6968722 110.032314,39.3898092 C110.515981,39.0821764 110.906788,38.6759873 111.207585,38.1712417 C111.507242,37.6659264 111.65764,37.0404065 111.65764,36.2941123 C111.65764,35.7671488 111.554526,35.3250691 111.350007,34.9661643 C111.144349,34.6072594 110.874316,34.3070326 110.537629,34.0660537 C110.200942,33.824505 109.816401,33.6302406 109.384576,33.4838302 C108.95332,33.3379895 108.510101,33.2132273 108.056628,33.1106831 C107.617966,33.0087085 107.185571,32.9130006 106.761722,32.8252683 C106.336733,32.737536 105.960168,32.6389795 105.630887,32.5290293 C105.301036,32.4190791 105.034421,32.2766565 104.829332,32.1006222 C104.624244,31.9251576 104.522269,31.6984209 104.522269,31.4204121 C104.522269,31.1862694 104.580378,30.9999806 104.697734,30.8604065 C104.81452,30.7214021 104.957513,30.6154397 105.126141,30.5419497 C105.2942,30.4690293 105.480488,30.421745 105.685577,30.3995271 C105.890665,30.3773092 106.080942,30.3664851 106.256407,30.3664851 C106.812994,30.3664851 107.295522,30.4724475 107.705699,30.6849419 C108.115306,30.8974364 108.342043,31.3030559 108.385909,31.9035094 L111.350007,31.9035094 C111.291329,31.2005116 111.111877,30.6188579 110.81165,30.1579784 C110.511993,29.697099 110.134858,29.32737 109.681384,29.0493612 C109.227341,28.7713523 108.711772,28.5736698 108.133536,28.4563136 C107.554731,28.3395271 106.959404,28.280849 106.344139,28.280849 C105.729443,28.280849 105.129559,28.3355393 104.543918,28.4454895 C103.958276,28.5554397 103.431312,28.7457163 102.963597,29.0163191 C102.494742,29.2874917 102.118176,29.656651 101.832762,30.1249364 C101.547347,30.5937915 101.404924,31.1936753 101.404924,31.9251576 C101.404924,32.4230669 101.506899,32.844068 101.711987,33.1875913 C101.917076,33.5316842 102.187679,33.817099 102.523796,34.0438357 C102.860483,34.2705725 103.245024,34.4540127 103.676849,34.5924475 C104.108674,34.7320216 104.551324,34.8527959 105.005367,34.9547705 C106.117402,35.1894829 106.983901,35.4236256 107.606572,35.6571986 C108.228674,35.891911 108.539725,36.2428402 108.539725,36.7111256 C108.539725,36.9891344 108.474211,37.219859 108.342043,37.4027295 C108.210444,37.5861698 108.045804,37.7320105 107.848121,37.8419607 C107.650439,37.9513413 107.431108,38.0322373 107.189559,38.0835094 C106.948011,38.1347815 106.717856,38.1604176 106.497955,38.1604176 C106.190892,38.1604176 105.894084,38.1239574 105.608669,38.0504674 C105.323254,37.977547 105.070881,37.8641787 104.850981,37.7103623 C104.63222,37.5565459 104.452197,37.3588634 104.313763,37.1173147 C104.174189,36.875766 104.105256,36.5869331 104.105256,36.2502461 L101.18598,36.2502461 Z M65.66438,5.2360802 L69.3309065,16.0157594 L69.3747727,16.0157594 L72.8436167,5.2360802 L77.695099,5.2360802 L77.695099,20.9116775 L74.4678037,20.9116775 L74.4678037,9.80271737 L74.4239375,9.80271737 L70.5819463,20.9116775 L67.9260503,20.9116775 L64.0840592,9.9120979 L64.0396233,9.9120979 L64.0396233,20.9116775 L60.812328,20.9116775 L60.812328,5.2360802 L65.66438,5.2360802 Z M78.7272069,20.9117345 L81.844552,20.9117345 L81.844552,9.56122566 L78.7272069,9.56122566 L78.7272069,20.9117345 Z M78.7272069,7.80487058 L81.844552,7.80487058 L81.844552,5.23613717 L78.7272069,5.23613717 L78.7272069,7.80487058 Z M85.9495691,9.56105476 L85.9495691,11.1419452 L86.0156532,11.1419452 C86.4110183,10.4833833 86.9231698,10.0037041 87.5521079,9.70347732 C88.1816156,9.40438993 88.8259353,9.25342201 89.4844972,9.25342201 C90.3185238,9.25342201 91.0027218,9.36736007 91.5370913,9.59409679 C92.070891,9.82140321 92.4918921,10.1358722 92.7989552,10.5380736 C93.1065879,10.9408446 93.3225006,11.4307782 93.4472627,12.0090138 C93.5714552,12.5872494 93.6335514,13.2275813 93.6335514,13.9300094 L93.6335514,20.9115636 L90.5162063,20.9115636 L90.5162063,14.500839 C90.5162063,13.5642683 90.3697959,12.8652583 90.0769751,12.4043789 C89.7841543,11.9434994 89.2645968,11.7127749 88.5183025,11.7127749 C87.669464,11.7127749 87.0541986,11.9651477 86.6742152,12.4698933 C86.2936621,12.9752085 86.1039552,13.8058169 86.1039552,14.9617185 L86.1039552,20.9115636 L82.9860404,20.9115636 L82.9860404,9.56105476 L85.9495691,9.56105476 Z M97.6510642,9.56105476 L97.6510642,11.1419452 L97.7171482,11.1419452 C98.1125133,10.4833833 98.6246648,10.0037041 99.2536029,9.70347732 C99.8831106,9.40438993 100.52743,9.25342201 101.185992,9.25342201 C102.020019,9.25342201 102.704217,9.36736007 103.238586,9.59409679 C103.772386,9.82140321 104.193387,10.1358722 104.50045,10.5380736 C104.808083,10.9408446 105.023996,11.4307782 105.148758,12.0090138 C105.27295,12.5872494 105.335046,13.2275813 105.335046,13.9300094 L105.335046,20.9115636 L102.217701,20.9115636 L102.217701,14.500839 C102.217701,13.5642683 102.071291,12.8652583 101.77847,12.4043789 C101.485649,11.9434994 100.966092,11.7127749 100.219798,11.7127749 C99.3709591,11.7127749 98.7556936,11.9651477 98.3757102,12.4698933 C97.9951571,12.9752085 97.8054502,13.8058169 97.8054502,14.9617185 L97.8054502,20.9115636 L94.6875354,20.9115636 L94.6875354,9.56105476 L97.6510642,9.56105476 Z M109.725535,18.1890708 C110.19439,18.6431139 110.867195,18.8698507 111.745657,18.8698507 C112.374595,18.8698507 112.916371,18.7126162 113.370414,18.3975774 C113.823887,18.0831084 114.101896,17.7498396 114.20444,17.3989104 L116.948638,17.3989104 C116.509977,18.7599004 115.836603,19.7335011 114.929086,20.318573 C114.021,20.9042146 112.923777,21.1970354 111.635707,21.1970354 C110.743002,21.1970354 109.93803,21.0540431 109.22136,20.7686283 C108.50355,20.4832135 107.89626,20.0770243 107.398351,19.5506305 C106.901011,19.023667 106.51704,18.3941593 106.245867,17.6621073 C105.974695,16.930625 105.839678,16.1256527 105.839678,15.2471903 C105.839678,14.3989215 105.978683,13.6081914 106.257261,12.8761394 C106.53527,12.1446571 106.930065,11.5117312 107.442787,10.9773617 C107.954938,10.4429923 108.565646,10.0219912 109.27548,9.7149281 C109.985884,9.40729535 110.772056,9.25347898 111.635707,9.25347898 C112.601902,9.25347898 113.443334,9.44033739 114.160574,9.81348451 C114.877244,10.1872013 115.466874,10.6885288 115.927753,11.3174668 C116.389202,11.9469746 116.721902,12.6642146 116.92699,13.4691869 C117.131509,14.2741593 117.204429,15.1155918 117.146321,15.9934845 L108.957593,15.9934845 C109.001459,17.0035454 109.25725,17.7355973 109.725535,18.1890708 Z M113.249639,12.2175774 C112.876492,11.8079701 112.309081,11.6028816 111.547975,11.6028816 C111.050635,11.6028816 110.63704,11.6871958 110.307759,11.8552544 C109.978478,12.0238827 109.714711,12.2323894 109.517029,12.4807743 C109.319916,12.7302987 109.180342,12.9934956 109.100015,13.2715044 C109.019689,13.5495133 108.971835,13.7984679 108.957593,14.0177987 L114.028976,14.0177987 C113.881996,13.2276383 113.622787,12.6277544 113.249639,12.2175774 Z M117.541059,13.0520028 C117.585495,12.3199508 117.768366,11.712661 118.090241,11.2295636 C118.412116,10.7464663 118.821723,10.3590769 119.319632,10.0662561 C119.816972,9.77343529 120.376977,9.56492865 120.999079,9.44016648 C121.621181,9.315974 122.246701,9.25387777 122.876209,9.25387777 C123.447038,9.25387777 124.024704,9.29432577 124.610915,9.3746521 C125.195987,9.45497843 125.729787,9.61278263 126.213454,9.84635564 C126.696551,10.081068 127.091347,10.4063612 127.39898,10.8233744 C127.706043,11.2403877 127.859859,11.793557 127.859859,12.4811731 L127.859859,18.3865824 C127.859859,18.8993037 127.888913,19.3892373 127.947591,19.8575227 C128.006269,20.3263778 128.108244,20.677307 128.255224,20.9114497 L125.093443,20.9114497 C125.035335,20.7359851 124.987481,20.5565326 124.95102,20.3736621 C124.91456,20.1907915 124.888355,20.0039331 124.873543,19.8136565 C124.376203,20.3263778 123.790561,20.6847129 123.117757,20.8892317 C122.444383,21.0943202 121.756767,21.1968645 121.053769,21.1968645 C120.511994,21.1968645 120.007248,21.1307804 119.538963,20.999182 C119.070678,20.8675835 118.66107,20.662495 118.309571,20.3844862 C117.958642,20.1064773 117.684051,19.7555481 117.486939,19.3305592 C117.288686,18.9061399 117.19013,18.4013944 117.19013,17.8157528 C117.19013,17.1720028 117.302929,16.6410514 117.530235,16.2240382 C117.756972,15.8070249 118.049793,15.4743258 118.408697,15.2253711 C118.767033,14.9769862 119.17664,14.7901278 119.638089,14.6653656 C120.098968,14.5411731 120.563266,14.4426167 121.032121,14.3691267 C121.500407,14.2962063 121.961286,14.2375282 122.415329,14.1936621 C122.868803,14.1492262 123.271574,14.0837118 123.622503,13.9959795 C123.974002,13.9082472 124.252011,13.7800669 124.457099,13.6120083 C124.661618,13.4439497 124.756756,13.1984132 124.742514,12.8765382 C124.742514,12.5398512 124.687254,12.2720968 124.577873,12.074984 C124.467923,11.8773014 124.321513,11.7234851 124.138072,11.6141045 C123.955202,11.5041543 123.743277,11.4306643 123.501728,11.3942041 C123.26018,11.3577439 123.000401,11.3395138 122.722392,11.3395138 C122.107696,11.3395138 121.624599,11.4711123 121.27367,11.7348789 C120.922171,11.9980758 120.717652,12.437307 120.658974,13.0520028 L117.541059,13.0520028 Z M124.742514,15.3569696 C124.610915,15.4743258 124.445705,15.5654762 124.248592,15.6315603 C124.05091,15.6976444 123.838415,15.7523346 123.611679,15.7962008 C123.384372,15.8400669 123.146811,15.8770968 122.898426,15.9055813 C122.648902,15.9352052 122.400517,15.9716654 122.151562,16.0155315 C121.91742,16.0593977 121.687265,16.1180758 121.459959,16.1909961 C121.233222,16.2644862 121.035539,16.3636123 120.867481,16.4878048 C120.698852,16.6119972 120.563266,16.7698014 120.461291,16.9595083 C120.358747,17.1497848 120.307475,17.3913335 120.307475,17.6841543 C120.307475,17.9621632 120.358747,18.1968756 120.461291,18.3865824 C120.563266,18.576859 120.70284,18.7272572 120.878305,18.8366377 C121.053769,18.9465879 121.258858,19.0234961 121.493001,19.0673623 C121.727143,19.1112284 121.968692,19.1328767 122.217647,19.1328767 C122.831773,19.1328767 123.307464,19.0309021 123.644721,18.8258136 C123.980838,18.6207251 124.229793,18.3757583 124.391015,18.0903435 C124.551668,17.8049287 124.650794,17.5160957 124.687254,17.2232749 C124.723714,16.9304541 124.742514,16.6963114 124.742514,16.5202771 L124.742514,15.3569696 Z M131.921124,9.56122566 L131.921124,11.009948 L131.96499,11.009948 C132.345543,10.3952522 132.828071,9.94918473 133.414282,9.67117588 C133.999354,9.39316704 134.643674,9.25359292 135.345532,9.25359292 C136.238806,9.25359292 137.006749,9.42222124 137.651069,9.75890819 C138.294819,10.0955951 138.829188,10.5416626 139.254177,11.0976803 C139.678027,11.6542677 139.993065,12.3020055 140.197584,13.0408938 C140.402673,13.7797821 140.505217,14.5522821 140.505217,15.3572544 C140.505217,16.1183606 140.402673,16.8498429 140.197584,17.5528407 C139.993065,18.2546991 139.682014,18.8773706 139.264431,19.4185763 C138.847988,19.9603518 138.327861,20.392177 137.706329,20.714052 C137.083657,21.0353573 136.356163,21.1971493 135.521566,21.1971493 C134.819138,21.1971493 134.1714,21.0541571 133.578923,20.7687423 C132.985875,20.4833274 132.49879,20.062896 132.118237,19.5063086 L132.07494,19.5063086 L132.07494,24.8853241 L128.957025,24.8853241 L128.957025,9.56122566 L131.921124,9.56122566 Z M135.971622,18.5623319 C136.315715,18.3578131 136.593723,18.0900586 136.806218,17.7607777 C137.018143,17.4320664 137.168541,17.0475254 137.256273,16.6082942 C137.343436,16.1690631 137.387302,15.7229956 137.387302,15.2695221 C137.387302,14.815479 137.340018,14.3694115 137.244879,13.9301803 C137.149171,13.4909491 136.992507,13.0995719 136.772606,12.755479 C136.553275,12.4119558 136.271279,12.1333772 135.927756,11.9214524 C135.583663,11.7095277 135.162662,11.6029956 134.665322,11.6029956 C134.15317,11.6029956 133.724763,11.7095277 133.38124,11.9214524 C133.037147,12.1333772 132.758569,12.4079679 132.546644,12.7446549 C132.334149,13.0813418 132.18489,13.4693009 132.096588,13.9079624 C132.008856,14.3471936 131.96499,14.800667 131.96499,15.2695221 C131.96499,15.7229956 132.012274,16.1690631 132.107982,16.6082942 C132.203121,17.0475254 132.356367,17.4320664 132.568292,17.7607777 C132.780217,18.0900586 133.062783,18.3578131 133.414282,18.5623319 C133.765211,18.7674204 134.189631,18.8699646 134.68754,18.8699646 C135.199691,18.8699646 135.627529,18.7674204 135.971622,18.5623319 Z M141.119229,12.777526 C141.397808,12.0386377 141.792603,11.40913 142.304754,10.8895725 C142.817476,10.3700149 143.432171,9.96724392 144.149412,9.68182909 C144.866082,9.39641427 145.671624,9.25342201 146.564329,9.25342201 C147.456463,9.25342201 148.265424,9.39641427 148.99007,9.68182909 C149.714716,9.96724392 150.33283,10.3700149 150.845551,10.8895725 C151.357702,11.40913 151.752498,12.0386377 152.031076,12.777526 C152.308515,13.5164143 152.44809,14.3401864 152.44809,15.2471333 C152.44809,16.1552196 152.308515,16.9744342 152.031076,17.7059165 C151.752498,18.4385382 151.357702,19.0640581 150.845551,19.5830459 C150.33283,20.1026034 149.714716,20.5019563 148.99007,20.7793955 C148.265424,21.0574043 147.456463,21.1969784 146.564329,21.1969784 C145.671624,21.1969784 144.866082,21.0574043 144.149412,20.7793955 C143.432171,20.5019563 142.817476,20.1026034 142.304754,19.5830459 C141.792603,19.0640581 141.397808,18.4385382 141.119229,17.7059165 C140.84122,16.9744342 140.702785,16.1552196 140.702785,15.2471333 C140.702785,14.3401864 140.84122,13.5164143 141.119229,12.777526 Z M143.951729,16.575651 C144.039461,17.0074762 144.18929,17.3954353 144.401784,17.7389585 C144.613709,18.0830514 144.895706,18.3576421 145.246635,18.562161 C145.598704,18.7678191 146.037365,18.8697937 146.564329,18.8697937 C147.091292,18.8697937 147.533372,18.7678191 147.892277,18.562161 C148.251181,18.3576421 148.536596,18.0830514 148.748521,17.7389585 C148.960446,17.3954353 149.110844,17.0074762 149.198576,16.575651 C149.286309,16.1438258 149.330175,15.7011764 149.330175,15.2471333 C149.330175,14.7936598 149.286309,14.3470227 149.198576,13.9077915 C149.110844,13.46913 148.960446,13.0811709 148.748521,12.744484 C148.536596,12.4083667 148.251181,12.133776 147.892277,11.9212815 C147.533372,11.7093567 147.091292,11.6028247 146.564329,11.6028247 C146.037365,11.6028247 145.598704,11.7093567 145.246635,11.9212815 C144.895706,12.133776 144.613709,12.4083667 144.401784,12.744484 C144.18929,13.0811709 144.039461,13.46913 143.951729,13.9077915 C143.863997,14.3470227 143.820131,14.7936598 143.820131,15.2471333 C143.820131,15.7011764 143.863997,16.1438258 143.951729,16.575651 Z M153.128186,20.9117345 L156.245531,20.9117345 L156.245531,5.23613717 L153.128186,5.23613717 L153.128186,20.9117345 Z M157.145642,20.9117345 L160.262987,20.9117345 L160.262987,9.56122566 L157.145642,9.56122566 L157.145642,20.9117345 Z M157.145642,7.80487058 L160.262987,7.80487058 L160.262987,5.23613717 L157.145642,5.23613717 L157.145642,7.80487058 Z M164.028298,18.0902865 C164.166732,18.3318352 164.346754,18.5295177 164.565515,18.6833341 C164.785416,18.8371504 165.037789,18.9505188 165.323204,19.0234392 C165.608618,19.0969292 165.905427,19.1333894 166.21249,19.1333894 C166.43239,19.1333894 166.662545,19.1077533 166.904094,19.0564812 C167.145643,19.0052091 167.364973,18.9243131 167.562656,18.8149325 C167.760338,18.7049823 167.924979,18.5591416 168.056577,18.3757013 C168.188746,18.1928308 168.25426,17.9621062 168.25426,17.6840973 C168.25426,17.2158119 167.943209,16.8648827 167.321107,16.6301704 C166.698436,16.3965973 165.831937,16.1624546 164.719902,15.9277423 C164.265858,15.8257677 163.823209,15.7049934 163.391384,15.5654192 C162.959559,15.4269845 162.575018,15.2435442 162.238331,15.0168075 C161.902213,14.7900708 161.631611,14.504656 161.426522,14.1605631 C161.221434,13.8170398 161.119459,13.3960387 161.119459,12.8981294 C161.119459,12.1666471 161.261882,11.5667633 161.547296,11.0979082 C161.832711,10.6296228 162.209277,10.2604635 162.678132,9.98929093 C163.145847,9.71868805 163.672811,9.5284115 164.258452,9.41846128 C164.844094,9.30851106 165.443978,9.2538208 166.058674,9.2538208 C166.673939,9.2538208 167.269265,9.31249889 167.848071,9.4292854 C168.426306,9.54664159 168.941876,9.74432412 169.395919,10.022333 C169.849393,10.3003418 170.226528,10.6700708 170.526185,11.1309502 C170.826412,11.5918296 171.005864,12.1734834 171.064542,12.8764812 L168.100444,12.8764812 C168.056577,12.2760277 167.829841,11.8704082 167.420233,11.6579137 C167.010056,11.4454192 166.527529,11.3394569 165.970941,11.3394569 C165.795477,11.3394569 165.6052,11.350281 165.400112,11.3724989 C165.195023,11.3947168 165.008735,11.4420011 164.840676,11.5149215 C164.672048,11.5884115 164.529055,11.6943739 164.412269,11.8333783 C164.294913,11.9729524 164.236804,12.1592412 164.236804,12.3933838 C164.236804,12.6713927 164.338779,12.8981294 164.543867,13.073594 C164.748956,13.2496283 165.015571,13.3920509 165.345421,13.5020011 C165.674702,13.6119513 166.051268,13.7105077 166.476257,13.79824 C166.900106,13.8859723 167.332501,13.9816803 167.771163,14.0836549 C168.224636,14.1861991 168.667855,14.3109613 169.099111,14.456802 C169.530936,14.6032124 169.915477,14.7974768 170.252164,15.0390254 C170.588851,15.2800044 170.858884,15.5802312 171.064542,15.9391361 C171.269061,16.2980409 171.372175,16.7401206 171.372175,17.2670841 C171.372175,18.0133783 171.221777,18.6388982 170.922119,19.1442135 C170.621323,19.6489591 170.230515,20.0551482 169.746848,20.362781 C169.263751,20.669844 168.711721,20.8863263 168.089619,21.0099491 C167.467518,21.1347113 166.834592,21.1968075 166.190842,21.1968075 C165.53228,21.1968075 164.88796,21.1307235 164.258452,20.999125 C163.629514,20.8675265 163.068939,20.6481958 162.579006,20.3405631 C162.088502,20.0335 161.686301,19.6273108 161.371832,19.1225653 C161.056793,18.61725 160.884747,17.9843241 160.855692,17.2232179 L163.819791,17.2232179 C163.819791,17.5599049 163.888723,17.8487378 164.028298,18.0902865 Z M70.0989629,39.8177605 C69.3526687,40.1322295 68.5983988,40.2900337 67.8378623,40.2900337 C66.6375249,40.2900337 65.5579618,40.0809574 64.5997428,39.6639441 C63.6409541,39.2469309 62.8319939,38.6726831 62.1740017,37.9406311 C61.5154397,37.2091488 61.0101244,36.3489165 60.6591952,35.3610736 C60.3076963,34.3732306 60.1322317,33.3084795 60.1322317,32.1668202 C60.1322317,30.9961067 60.3076963,29.9091377 60.6591952,28.9064829 C61.0101244,27.903828 61.5154397,27.0293534 62.1740017,26.2830592 C62.8319939,25.5367649 63.6409541,24.9511233 64.5997428,24.5267041 C65.5579618,24.1022848 66.6375249,23.8903601 67.8378623,23.8903601 C68.6422649,23.8903601 69.4221709,24.0105647 70.1758711,24.2521134 C70.9295713,24.4936621 71.6097815,24.8485791 72.217641,25.3168645 C72.8249309,25.7857196 73.3262583,26.3633855 73.7210537,27.0515713 C74.1169884,27.7391875 74.3585371,28.5299176 74.4462694,29.4220525 L71.1528899,29.4220525 C70.9478014,28.5441598 70.5524364,27.8855979 69.9673645,27.4463667 C69.3817229,27.0077052 68.6718888,26.7878048 67.8378623,26.7878048 C67.0619441,26.7878048 66.4033822,26.938203 65.8621764,27.2378601 C65.320401,27.5380868 64.8811698,27.9402882 64.5444829,28.4456034 C64.2077959,28.950349 63.9628291,29.5251665 63.8090127,30.1689165 C63.6551963,30.8132362 63.5788579,31.4786344 63.5788579,32.1668202 C63.5788579,32.8253822 63.6551963,33.465714 63.8090127,34.0878158 C63.9628291,34.7099176 64.2077959,35.2699231 64.5444829,35.7672627 C64.8811698,36.265172 65.320401,36.6639552 65.8621764,36.9636123 C66.4033822,37.263839 67.0619441,37.4136676 67.8378623,37.4136676 C68.9795216,37.4136676 69.8608324,37.1248346 70.4835039,36.546599 C71.1056056,35.9683634 71.467359,35.130349 71.5699032,34.0325559 L68.1010592,34.0325559 L68.1010592,31.4638225 L74.687818,31.4638225 L74.687818,39.9385348 L72.4922317,39.9385348 L72.1407329,38.1599618 C71.5260371,38.9506919 70.8458269,39.5032915 70.0989629,39.8177605 Z M75.6748064,39.93825 L78.7921515,39.93825 L78.7921515,24.2626527 L75.6748064,24.2626527 L75.6748064,39.93825 Z M79.8023833,32.079031 C79.8468191,31.346979 80.0296897,30.7396892 80.3515647,30.2565918 C80.6734397,29.7734945 81.083047,29.3861051 81.5809563,29.0932843 C82.0782959,28.8004635 82.6383014,28.5919569 83.2604032,28.4671947 C83.882505,28.3430022 84.5080249,28.280906 85.1375326,28.280906 C85.7083623,28.280906 86.2860282,28.321354 86.8722395,28.4016803 C87.4573114,28.4820066 87.9911112,28.6398108 88.4747782,28.8733838 C88.9578756,29.1080962 89.3526709,29.4333894 89.6603037,29.8504027 C89.9673667,30.2674159 90.1211831,30.8205852 90.1211831,31.5082013 L90.1211831,37.4136106 C90.1211831,37.9263319 90.1502373,38.4162655 90.2089154,38.8845509 C90.2675935,39.353406 90.369568,39.7043352 90.5165481,39.9384779 L87.3547671,39.9384779 C87.2966587,39.7630133 87.2488048,39.5835608 87.2123446,39.4006903 C87.1758844,39.2178197 87.1496787,39.0309613 87.1348667,38.8406847 C86.6375271,39.353406 86.0518855,39.7117412 85.3790813,39.91626 C84.7057074,40.1213485 84.0180913,40.2238927 83.3150935,40.2238927 C82.773318,40.2238927 82.2685725,40.1578086 81.8002871,40.0262102 C81.3320017,39.8946117 80.9223944,39.6895232 80.5708955,39.4115144 C80.2199663,39.1335055 79.9453756,38.7825763 79.7482627,38.3575874 C79.5500105,37.9331681 79.4514541,37.4284226 79.4514541,36.842781 C79.4514541,36.199031 79.5642528,35.6680796 79.7915592,35.2510664 C80.0182959,34.8340531 80.3111167,34.501354 80.6700216,34.2523993 C81.0283567,34.0040144 81.437964,33.817156 81.8994132,33.6923938 C82.3602926,33.5682013 82.8245902,33.4696449 83.2934452,33.3961549 C83.7617306,33.3232345 84.2226101,33.2645564 84.6766532,33.2206903 C85.1301267,33.1762544 85.5328977,33.11074 85.8838269,33.0230077 C86.2353258,32.9352754 86.5133346,32.8070951 86.7184231,32.6390365 C86.9229419,32.4709779 87.0180802,32.2254414 87.0038379,31.9035664 C87.0038379,31.5668794 86.948578,31.299125 86.8391975,31.1020122 C86.7292472,30.9043296 86.5828368,30.7505133 86.3993966,30.6411327 C86.216526,30.5311825 86.0046012,30.4576925 85.7630525,30.4212323 C85.5215039,30.3847721 85.2617251,30.366542 84.9837163,30.366542 C84.3690205,30.366542 83.8859231,30.4981405 83.5349939,30.7619071 C83.183495,31.025104 82.9789762,31.4643352 82.9202981,32.079031 L79.8023833,32.079031 Z M87.0038379,34.3839978 C86.8722395,34.501354 86.7070293,34.5925044 86.5099165,34.6585885 C86.312234,34.7246726 86.0997395,34.7793628 85.8730028,34.823229 C85.6456963,34.8670951 85.4081355,34.904125 85.1597506,34.9326095 C84.9102262,34.9622334 84.6618413,34.9986936 84.4128866,35.0425597 C84.1787439,35.0864259 83.948589,35.145104 83.7212826,35.2180243 C83.4945459,35.2915144 83.2968634,35.3906405 83.1288048,35.514833 C82.9601764,35.6390254 82.8245902,35.7968296 82.7226156,35.9865365 C82.6200713,36.1768131 82.5687992,36.4183617 82.5687992,36.7111825 C82.5687992,36.9891914 82.6200713,37.2239038 82.7226156,37.4136106 C82.8245902,37.6038872 82.9641643,37.7542854 83.1396289,37.8636659 C83.3150935,37.9736162 83.520182,38.0505243 83.7543247,38.0943905 C83.9884674,38.1382566 84.230016,38.1599049 84.4789707,38.1599049 C85.0930968,38.1599049 85.5687882,38.0579303 85.9060448,37.8528418 C86.2421621,37.6477533 86.4911167,37.4027865 86.652339,37.1173717 C86.8129917,36.8319569 86.9121178,36.5431239 86.948578,36.2503031 C86.9850382,35.9574823 87.0038379,35.7233396 87.0038379,35.5473053 L87.0038379,34.3839978 Z M125.575857,28.4453756 C125.371338,28.1160946 125.114977,27.8272616 124.807345,27.578307 C124.500282,27.329922 124.15277,27.1356576 123.764811,26.9966532 C123.376852,26.8576488 122.970663,26.7881466 122.546814,26.7881466 C121.770326,26.7881466 121.111764,26.9379751 120.570558,27.2382019 C120.029352,27.5384287 119.589551,27.94063 119.252864,28.4453756 C118.916747,28.9506908 118.67178,29.5249386 118.517394,30.1686886 C118.364148,30.8130083 118.287239,31.4789762 118.287239,32.1665924 C118.287239,32.8251543 118.364148,33.4660559 118.517394,34.0875879 C118.67178,34.7102594 118.916747,35.2696952 119.252864,35.7670348 C119.589551,36.2649441 120.029352,36.6637273 120.570558,36.9639541 C121.111764,37.2636112 121.770326,37.4140094 122.546814,37.4140094 C123.600171,37.4140094 124.423943,37.0921344 125.016421,36.4478147 C125.609468,35.8040647 125.971222,34.9546565 126.10339,33.9012992 L129.440066,33.9012992 C129.352334,34.8817362 129.125027,35.7670348 128.759286,36.5577649 C128.393545,37.3479253 127.910447,38.0212992 127.310564,38.5773169 C126.71011,39.1339043 126.007682,39.5577539 125.203279,39.8505747 C124.397737,40.1433955 123.512439,40.2898059 122.546814,40.2898059 C121.345907,40.2898059 120.266913,40.0812992 119.308124,39.6637163 C118.349336,39.246703 117.540945,38.6730249 116.882383,37.9404032 C116.223821,37.2089209 115.718506,36.3492583 115.367577,35.3608457 C115.016078,34.3730028 114.840613,33.3082517 114.840613,32.1665924 C114.840613,30.9958789 115.016078,29.9089098 115.367577,28.9068247 C115.718506,27.9041698 116.223821,27.0296952 116.882383,26.2828313 C117.540945,25.5365371 118.349336,24.9514652 119.308124,24.5264762 C120.266913,24.102057 121.345907,23.8901322 122.546814,23.8901322 C123.409894,23.8901322 124.226261,24.0143247 124.994203,24.2632793 C125.762715,24.512234 126.450331,24.874557 127.058191,25.3496787 C127.664911,25.8259397 128.166808,26.4149994 128.561603,27.1168579 C128.957538,27.8198556 129.205923,28.624828 129.308467,29.5323446 L125.971222,29.5323446 C125.912544,29.1369795 125.780945,28.7746565 125.575857,28.4453756 Z M130.20835,31.8045542 C130.486929,31.0656659 130.881724,30.4361582 131.393876,29.9166007 C131.906597,29.3970431 132.521293,28.9942721 133.238533,28.7088573 C133.955203,28.4234425 134.760745,28.2804502 135.65345,28.2804502 C136.545585,28.2804502 137.354545,28.4234425 138.079191,28.7088573 C138.803837,28.9942721 139.421951,29.3970431 139.934672,29.9166007 C140.446824,30.4361582 140.841619,31.0656659 141.120197,31.8045542 C141.397637,32.5434425 141.537211,33.3672146 141.537211,34.2741615 C141.537211,35.1822478 141.397637,36.0014624 141.120197,36.7329447 C140.841619,37.4655664 140.446824,38.0910863 139.934672,38.6100741 C139.421951,39.1296316 138.803837,39.5289845 138.079191,39.8064237 C137.354545,40.0844325 136.545585,40.2240066 135.65345,40.2240066 C134.760745,40.2240066 133.955203,40.0844325 133.238533,39.8064237 C132.521293,39.5289845 131.906597,39.1296316 131.393876,38.6100741 C130.881724,38.0910863 130.486929,37.4655664 130.20835,36.7329447 C129.930341,36.0014624 129.791907,35.1822478 129.791907,34.2741615 C129.791907,33.3672146 129.930341,32.5434425 130.20835,31.8045542 Z M133.04085,35.6026792 C133.128582,36.0345044 133.278411,36.4224635 133.490905,36.7659867 C133.70283,37.1100796 133.984827,37.3846704 134.335756,37.5891892 C134.687825,37.7948473 135.126486,37.8968219 135.65345,37.8968219 C136.180413,37.8968219 136.622493,37.7948473 136.981398,37.5891892 C137.340303,37.3846704 137.625717,37.1100796 137.837642,36.7659867 C138.049567,36.4224635 138.199965,36.0345044 138.287697,35.6026792 C138.37543,35.170854 138.419296,34.7282046 138.419296,34.2741615 C138.419296,33.8206881 138.37543,33.3740509 138.287697,32.9348197 C138.199965,32.4961582 138.049567,32.1081991 137.837642,31.7715122 C137.625717,31.4353949 137.340303,31.1608042 136.981398,30.9483097 C136.622493,30.736385 136.180413,30.6298529 135.65345,30.6298529 C135.126486,30.6298529 134.687825,30.736385 134.335756,30.9483097 C133.984827,31.1608042 133.70283,31.4353949 133.490905,31.7715122 C133.278411,32.1081991 133.128582,32.4961582 133.04085,32.9348197 C132.953118,33.3740509 132.909252,33.8206881 132.909252,34.2741615 C132.909252,34.7282046 132.953118,35.170854 133.04085,35.6026792 Z M145.269138,28.588083 L145.269138,30.1251073 L145.313004,30.1251073 C145.722611,29.5394657 146.216533,29.0859923 146.794768,28.7641173 C147.372434,28.4422423 148.034984,28.2804502 148.781848,28.2804502 C149.498518,28.2804502 150.153662,28.4200243 150.74614,28.6980332 C151.339187,28.976042 151.789243,29.4665454 152.096306,30.1689735 C152.432993,29.6716338 152.890454,29.2324027 153.469259,28.8512799 C154.046925,28.4712965 154.731123,28.2804502 155.521284,28.2804502 C156.121737,28.2804502 156.677185,28.3539403 157.190476,28.5003507 C157.702058,28.6467611 158.141289,28.8814735 158.50703,29.2027788 C158.873341,29.5252235 159.158756,29.9456549 159.363275,30.4652124 C159.568363,30.9853396 159.670908,31.6108595 159.670908,32.3423418 L159.670908,39.9385918 L156.553562,39.9385918 L156.553562,33.5056493 C156.553562,33.1256659 156.538751,32.7667611 156.509127,32.4300741 C156.480072,32.0933872 156.399746,31.8011361 156.268148,31.5521814 C156.13598,31.3032268 155.941715,31.1055442 155.685924,30.9591338 C155.430133,30.8132931 155.082622,30.7398031 154.643391,30.7398031 C154.20473,30.7398031 153.849812,30.8241173 153.57864,30.9921759 C153.307467,31.1608042 153.095543,31.380135 152.942296,31.6507378 C152.78791,31.9219104 152.685935,32.2289735 152.634663,32.5730664 C152.583391,32.9171593 152.557755,33.2641007 152.557755,33.6155996 L152.557755,39.9385918 L149.43984,39.9385918 L149.43984,33.5717334 C149.43984,33.2350465 149.433004,32.9023473 149.418192,32.5730664 C149.40338,32.2437854 149.341284,31.9401405 149.231903,31.6621316 C149.121953,31.3841228 148.938513,31.1608042 148.682722,30.9921759 C148.426361,30.8241173 148.049796,30.7398031 147.552456,30.7398031 C147.405476,30.7398031 147.211782,30.7722754 146.970233,30.8383595 C146.729254,30.9044436 146.494541,31.0286361 146.267805,31.2115066 C146.040498,31.3949469 145.847373,31.6581438 145.685581,32.0022367 C145.524929,32.3463296 145.444602,32.796385 145.444602,33.3524027 L145.444602,39.9385918 L142.327257,39.9385918 L142.327257,28.588083 L145.269138,28.588083 Z M163.622393,28.5882539 L163.622393,30.0369762 L163.666259,30.0369762 C164.046812,29.4222804 164.52934,28.9762129 165.115551,28.6982041 C165.700623,28.4201952 166.344943,28.2806211 167.046801,28.2806211 C167.940076,28.2806211 168.708018,28.4492494 169.352338,28.7859364 C169.996088,29.1226233 170.530457,29.5686908 170.955446,30.1247085 C171.379296,30.6812959 171.694335,31.3290337 171.898853,32.067922 C172.103942,32.8068103 172.206486,33.5793103 172.206486,34.3842826 C172.206486,35.1453888 172.103942,35.8768711 171.898853,36.5798689 C171.694335,37.2817273 171.383284,37.9043988 170.965701,38.4456045 C170.549257,38.98738 170.02913,39.4192052 169.407598,39.7410802 C168.784926,40.0623855 168.057432,40.2241775 167.222836,40.2241775 C166.520408,40.2241775 165.87267,40.0811853 165.280192,39.7957705 C164.687144,39.5103556 164.200059,39.0899242 163.819506,38.5333368 L163.77621,38.5333368 L163.77621,43.9123523 L160.658295,43.9123523 L160.658295,28.5882539 L163.622393,28.5882539 Z M167.672891,37.5893601 C168.016984,37.3848413 168.294993,37.1170868 168.507487,36.7878059 C168.719412,36.4590946 168.86981,36.0745537 168.957543,35.6353225 C169.044705,35.1960913 169.088571,34.7500238 169.088571,34.2965503 C169.088571,33.8425072 169.041287,33.3964397 168.946149,32.9572085 C168.850441,32.5179773 168.693776,32.1266001 168.473876,31.7825072 C168.254545,31.438984 167.972548,31.1604054 167.629025,30.9484806 C167.284932,30.7365559 166.863931,30.6300238 166.366591,30.6300238 C165.85444,30.6300238 165.426033,30.7365559 165.082509,30.9484806 C164.738416,31.1604054 164.459838,31.4349961 164.247913,31.7716831 C164.035419,32.10837 163.88616,32.4963291 163.797858,32.9349906 C163.710126,33.3742218 163.666259,33.8276952 163.666259,34.2965503 C163.666259,34.7500238 163.713544,35.1960913 163.809252,35.6353225 C163.90439,36.0745537 164.057637,36.4590946 164.269561,36.7878059 C164.481486,37.1170868 164.764053,37.3848413 165.115551,37.5893601 C165.466481,37.7944486 165.8909,37.8969928 166.388809,37.8969928 C166.900961,37.8969928 167.328798,37.7944486 167.672891,37.5893601 Z M172.622987,32.079031 C172.667423,31.346979 172.850293,30.7396892 173.172168,30.2565918 C173.494043,29.7734945 173.90365,29.3861051 174.40156,29.0932843 C174.898899,28.8004635 175.458905,28.5919569 176.081007,28.4671947 C176.703108,28.3430022 177.328628,28.280906 177.958136,28.280906 C178.528966,28.280906 179.106632,28.321354 179.692843,28.4016803 C180.277915,28.4820066 180.811715,28.6398108 181.295382,28.8733838 C181.778479,29.1080962 182.173274,29.4333894 182.480907,29.8504027 C182.78797,30.2674159 182.941787,30.8205852 182.941787,31.5082013 L182.941787,37.4136106 C182.941787,37.9263319 182.970841,38.4162655 183.029519,38.8845509 C183.088197,39.353406 183.190171,39.7043352 183.337152,39.9384779 L180.175371,39.9384779 C180.117262,39.7630133 180.069408,39.5835608 180.032948,39.4006903 C179.996488,39.2178197 179.970282,39.0309613 179.95547,38.8406847 C179.458131,39.353406 178.872489,39.7117412 178.199685,39.91626 C177.526311,40.1213485 176.838695,40.2238927 176.135697,40.2238927 C175.593921,40.2238927 175.089176,40.1578086 174.62089,40.0262102 C174.152605,39.8946117 173.742998,39.6895232 173.391499,39.4115144 C173.04057,39.1335055 172.765979,38.7825763 172.568866,38.3575874 C172.370614,37.9331681 172.272058,37.4284226 172.272058,36.842781 C172.272058,36.199031 172.384856,35.6680796 172.612163,35.2510664 C172.838899,34.8340531 173.13172,34.501354 173.490625,34.2523993 C173.84896,34.0040144 174.258567,33.817156 174.720017,33.6923938 C175.180896,33.5682013 175.645194,33.4696449 176.114049,33.3961549 C176.582334,33.3232345 177.043213,33.2645564 177.497257,33.2206903 C177.95073,33.1762544 178.353501,33.11074 178.70443,33.0230077 C179.055929,32.9352754 179.333938,32.8070951 179.539027,32.6390365 C179.743545,32.4709779 179.838684,32.2254414 179.824441,31.9035664 C179.824441,31.5668794 179.769181,31.299125 179.659801,31.1020122 C179.549851,30.9043296 179.40344,30.7505133 179.22,30.6411327 C179.037129,30.5311825 178.825205,30.4576925 178.583656,30.4212323 C178.342107,30.3847721 178.082329,30.366542 177.80432,30.366542 C177.189624,30.366542 176.706527,30.4981405 176.355597,30.7619071 C176.004098,31.025104 175.79958,31.4643352 175.740902,32.079031 L172.622987,32.079031 Z M179.824441,34.3839978 C179.692843,34.501354 179.527633,34.5925044 179.33052,34.6585885 C179.132837,34.7246726 178.920343,34.7793628 178.693606,34.823229 C178.4663,34.8670951 178.228739,34.904125 177.980354,34.9326095 C177.73083,34.9622334 177.482445,34.9986936 177.23349,35.0425597 C176.999347,35.0864259 176.769192,35.145104 176.541886,35.2180243 C176.315149,35.2915144 176.117467,35.3906405 175.949408,35.514833 C175.78078,35.6390254 175.645194,35.7968296 175.543219,35.9865365 C175.440675,36.1768131 175.389403,36.4183617 175.389403,36.7111825 C175.389403,36.9891914 175.440675,37.2239038 175.543219,37.4136106 C175.645194,37.6038872 175.784768,37.7542854 175.960232,37.8636659 C176.135697,37.9736162 176.340785,38.0505243 176.574928,38.0943905 C176.809071,38.1382566 177.050619,38.1599049 177.299574,38.1599049 C177.9137,38.1599049 178.389392,38.0579303 178.726648,37.8528418 C179.062765,37.6477533 179.31172,37.4027865 179.472942,37.1173717 C179.633595,36.8319569 179.732721,36.5431239 179.769181,36.2503031 C179.805642,35.9574823 179.824441,35.7233396 179.824441,35.5473053 L179.824441,34.3839978 Z M186.849292,28.588083 L186.849292,30.1689735 L186.915376,30.1689735 C187.310741,29.5104115 187.822893,29.0307323 188.451831,28.7305055 C189.081338,28.4314181 189.725658,28.2804502 190.38422,28.2804502 C191.218247,28.2804502 191.902445,28.3943883 192.436814,28.621125 C192.970614,28.8484314 193.391615,29.1629004 193.698678,29.5651018 C194.006311,29.9678728 194.222223,30.4578064 194.346986,31.036042 C194.471178,31.6142777 194.533274,32.2546095 194.533274,32.9570376 L194.533274,39.9385918 L191.415929,39.9385918 L191.415929,33.5278673 C191.415929,32.5912965 191.269519,31.8922865 190.976698,31.4314071 C190.683877,30.9705277 190.16432,30.7398031 189.418025,30.7398031 C188.569187,30.7398031 187.953921,30.9921759 187.573938,31.4969215 C187.193385,32.0022367 187.003678,32.8328451 187.003678,33.9887467 L187.003678,39.9385918 L183.885763,39.9385918 L183.885763,28.588083 L186.849292,28.588083 Z M199.780293,43.3193617 C199.179839,43.7147268 198.345812,43.9124093 197.277643,43.9124093 C196.955768,43.9124093 196.636742,43.9010155 196.322842,43.8793673 C196.007804,43.8571493 195.689347,43.8315133 195.367472,43.8024591 L195.367472,41.2337257 C195.660293,41.2627799 195.960519,41.2918341 196.267582,41.321458 C196.575215,41.3505122 196.882278,41.3579181 197.189911,41.3436759 C197.599518,41.2998097 197.903163,41.1385874 198.100846,40.8605785 C198.297959,40.5825697 198.397085,40.2749369 198.397085,39.93825 C198.397085,39.689865 198.353218,39.4557223 198.265486,39.2358219 L194.291897,28.5883108 L197.606924,28.5883108 L200.175088,36.3600254 L200.219524,36.3600254 L202.700525,28.5883108 L205.92782,28.5883108 L201.185718,41.3436759 C200.848462,42.2654347 200.380746,42.9245664 199.780293,43.3193617 Z" id="Logo-Type" fill="#FFFFFF"></path>
            </g>
        </g>
    </g>
</svg>